<?xml version="1.0" standalone="no"?>
<!DOCTYPE svg PUBLIC "-//W3C//DTD SVG 20010904//EN"
 "http://www.w3.org/TR/2001/REC-SVG-20010904/DTD/svg10.dtd">
<svg version="1.0" xmlns="http://www.w3.org/2000/svg"
 width="1574.000000pt" height="122.000000pt" viewBox="0 0 1574.000000 122.000000"
 preserveAspectRatio="xMidYMid meet">
<metadata>
3Car BMU Stadler
</metadata>
<g transform="translate(0.000000,122.000000) scale(0.100000,-0.100000)"
fill="#000000" stroke="none">
<path d="M5438 1139 c-72 -79 -117 -109 -164 -109 l-24 0 20 -20 c14 -14 33
-20 66 -20 25 0 43 -4 40 -9 -3 -5 -31 -8 -62 -7 -43 1 -59 6 -70 21 -13 17
-16 18 -24 5 -5 -8 -10 -18 -10 -22 0 -5 -27 -8 -60 -8 -48 0 -61 4 -69 19
-10 17 -31 18 -398 19 -365 0 -397 2 -536 25 -81 13 -153 29 -160 35 -8 6
-203 6 -572 1 -607 -10 -2253 -11 -2402 -3 -121 8 -218 -9 -279 -47 -90 -58
-183 -140 -251 -221 -37 -45 -83 -97 -101 -115 -42 -42 -107 -183 -84 -183 5
0 14 18 21 39 14 49 148 219 235 298 35 32 91 72 123 88 l58 30 2173 3 2172 2
-2 -222 -3 -223 -200 -5 -199 -5 -61 -72 -60 -73 -1250 0 -1250 -1 -85 91 -85
91 -175 -30 c-347 -60 -645 -111 -652 -111 -4 0 -13 -6 -20 -12 -8 -7 -22 -18
-33 -24 -33 -18 -29 -34 7 -34 l34 0 0 -49 c-1 -42 4 -55 28 -80 l30 -31 -512
0 c-505 0 -512 0 -512 -20 0 -20 7 -20 7770 -20 7763 0 7770 0 7770 20 0 20
-7 20 -552 20 l-552 0 30 31 c25 26 29 38 27 80 l-1 49 34 0 c40 0 44 16 9 32
-14 6 -25 15 -25 19 0 12 -23 17 -206 48 -93 16 -276 48 -406 70 -130 23 -242
38 -250 35 -7 -3 -45 -43 -84 -88 l-71 -81 -1249 -5 -1249 -5 -20 21 c-11 11
-42 46 -68 77 l-48 57 -200 0 -199 0 0 225 0 225 2166 0 2166 0 71 -37 c76
-40 230 -184 256 -239 17 -36 19 -40 59 -100 29 -43 33 -55 28 -93 -4 -25 -11
-48 -18 -52 -9 -6 -9 -11 1 -23 15 -18 7 -69 -14 -86 -16 -13 -149 -16 -343
-7 -105 5 -124 3 -129 -10 -3 -8 -1 -18 6 -22 7 -4 11 -12 10 -17 -6 -31 4
-41 52 -52 83 -19 99 -17 99 17 0 16 6 33 13 39 7 6 87 14 178 18 l166 7 -5
23 c-6 32 25 45 44 19 8 -10 17 -15 21 -12 3 4 3 7 -2 7 -4 0 -2 7 5 15 19 23
5 46 -27 43 l-28 -3 0 85 c0 95 -19 146 -78 204 -18 17 -67 72 -109 122 -81
95 -210 202 -288 237 -38 18 -64 21 -175 20 -578 -4 -2198 -1 -2570 6 -286 4
-462 4 -466 -2 -4 -5 -74 -20 -155 -33 -138 -22 -178 -24 -536 -24 -379 -1
-388 -1 -398 -21 -10 -17 -20 -20 -68 -17 l-57 3 -3 43 -3 42 -774 0 -774 0
-3 -42 -3 -43 -55 0 -55 0 -5 35 c-5 32 -8 35 -35 33 -17 -2 -129 -12 -250
-22 -205 -19 -304 -20 -1480 -21 -1221 0 -1463 4 -1420 21 11 5 -25 6 -81 2
-57 -3 -104 -2 -107 3 -3 5 30 49 74 98 43 49 79 90 79 92 0 11 -15 -3 -82
-77z m3297 -404 l0 -220 -203 -5 -202 -5 -25 -29 c-14 -16 -40 -49 -58 -73
l-32 -42 -1245 -1 -1245 0 -63 75 -62 75 -198 2 -197 3 -3 210 c-1 115 0 215
2 222 4 11 344 13 1768 11 l1763 -3 0 -220z m1675 0 l0 -225 -769 0 c-692 0
-769 2 -775 16 -8 21 -8 419 1 427 3 4 352 7 775 7 l768 0 0 -225z m-8386
-450 l59 -45 1247 0 1246 0 44 45 c36 37 51 45 80 45 l35 0 -3 -48 c-3 -41 1
-54 23 -80 l27 -32 -1482 0 -1482 0 27 32 c22 26 26 39 23 80 l-3 48 50 0 c44
0 58 -6 109 -45z m3637 0 l48 -45 1244 0 1243 0 64 45 c45 31 74 45 97 45 l33
0 0 -52 c0 -43 5 -57 27 -80 l27 -28 -1473 0 -1473 0 32 37 c29 32 32 41 26
80 -6 43 -5 43 26 43 23 0 43 -12 79 -45z m3627 3 l-3 -43 350 0 350 0 3 43
c3 42 3 42 42 42 l40 0 -6 -43 c-6 -39 -3 -48 26 -80 l32 -37 -483 0 -482 0
21 23 c31 33 42 71 32 106 l-9 31 45 0 46 0 -4 -42z m1712 -3 l44 -45 1246 0
1245 0 60 45 c52 39 66 45 110 45 l50 0 -3 -48 c-3 -41 1 -54 23 -80 l27 -32
-1481 0 c-815 0 -1481 2 -1481 5 0 2 12 16 26 30 22 22 25 33 22 75 l-3 50 35
0 c29 0 44 -8 80 -45z m-9538 -45 c100 0 169 4 173 10 10 16 35 12 42 -7 3
-10 17 -30 31 -45 l26 -28 -280 0 -279 0 27 23 c15 12 32 35 38 50 9 27 11 27
32 13 18 -13 54 -16 190 -16z m12698 5 c96 0 185 4 198 9 17 7 22 5 22 -9 0
-9 14 -30 31 -46 l31 -29 -278 0 -277 0 20 23 c11 12 26 32 33 45 8 17 16 21
28 15 9 -4 96 -8 192 -8z m-8876 -20 c3 -10 20 -15 48 -15 27 0 52 -8 68 -20
25 -20 25 -20 -254 -20 -278 0 -279 0 -261 20 13 15 31 20 67 20 36 0 48 4 48
15 0 22 275 22 284 0z m3656 0 c0 -11 12 -15 48 -15 36 0 54 -5 67 -20 18 -20
17 -20 -255 -20 -272 0 -273 0 -255 20 13 14 31 20 62 20 30 0 45 5 49 15 5
12 31 15 145 15 117 0 139 -2 139 -15z m1676 0 c4 -10 21 -15 54 -15 34 0 52
-5 65 -20 18 -20 17 -20 -261 -20 -279 0 -279 0 -254 20 15 12 41 20 66 20 28
0 44 5 48 15 4 12 30 15 141 15 111 0 137 -3 141 -15z"/>
<path d="M7426 892 c-8 -13 -9 -500 -1 -512 8 -13 337 -14 351 -1 5 6 7 109 4
263 l-5 253 -172 3 c-94 1 -174 -1 -177 -6z"/>
<path d="M7832 872 c-15 -2 -22 -9 -20 -20 1 -9 0 -21 -3 -27 -3 -5 -3 -67 -1
-138 l4 -127 402 2 401 3 3 50 c2 28 1 87 -3 133 l-7 82 -371 2 c-205 1 -301
4 -214 5 124 3 157 6 157 17 0 9 -17 16 -45 20 -44 7 -257 5 -303 -2z"/>
<path d="M5322 695 l3 -135 1025 0 c563 0 1028 4 1032 8 5 5 7 65 6 133 l-3
124 -1033 3 -1033 2 3 -135z"/>
<path d="M2515 893 c-13 -12 -15 -54 -13 -266 l3 -252 170 -2 c94 -2 175 0
180 5 6 4 9 101 7 263 l-3 257 -34 6 c-19 4 -93 6 -165 5 -101 -1 -134 -4
-145 -16z"/>
<path d="M12778 904 c-15 -5 -17 -30 -20 -262 -2 -163 1 -260 7 -264 6 -5 87
-7 180 -5 l170 2 0 253 c0 140 -3 259 -7 265 -7 12 -295 21 -330 11z"/>
<path d="M14884 818 c4 -28 11 -59 16 -68 5 -9 42 -26 86 -38 l77 -21 29 20
c15 11 28 24 28 29 0 24 -180 130 -221 130 -20 0 -21 -3 -15 -52z"/>
<path d="M568 793 c-63 -41 -72 -62 -33 -83 21 -11 35 -10 92 5 81 21 92 30
100 78 l6 37 -54 0 c-45 0 -63 -6 -111 -37z"/>
<path d="M1672 698 l3 -133 395 0 395 0 0 130 0 130 -398 3 -398 2 3 -132z"/>
<path d="M2899 808 c-2 -79 3 -243 7 -248 7 -6 2013 -10 2037 -3 15 4 17 19
17 139 l0 134 -1030 0 -1030 0 -1 -22z"/>
<path d="M10662 693 l3 -138 870 -1 c479 0 942 2 1030 5 l160 6 0 130 0 130
-1033 3 -1033 2 3 -137z"/>
<path d="M13150 695 l0 -135 398 2 397 3 3 133 3 132 -400 0 -401 0 0 -135z"/>
<path d="M593 316 c-106 -9 -115 -26 -14 -26 74 0 91 -10 91 -52 0 -32 7 -34
92 -16 54 11 58 14 58 40 0 15 5 28 10 28 18 0 11 28 -8 34 -22 7 -99 5 -229
-8z"/>
</g>
</svg>
