<?xml version="1.0" standalone="no"?>
<!DOCTYPE svg PUBLIC "-//W3C//DTD SVG 20010904//EN"
 "http://www.w3.org/TR/2001/REC-SVG-20010904/DTD/svg10.dtd">
<svg version="1.0" xmlns="http://www.w3.org/2000/svg"
 width="1922.000000pt" height="115.000000pt" viewBox="0 0 1922.000000 115.000000"
 preserveAspectRatio="xMidYMid meet">
<metadata>
Stadler 4car BMU
</metadata>
<g transform="translate(0.000000,115.000000) scale(0.100000,-0.100000)"
fill="#000000" stroke="none">
<path d="M13849 1070 c39 -45 71 -86 71 -92 0 -8 -33 -9 -112 -5 -75 4 -105 3
-90 -3 12 -5 22 -12 22 -14 0 -3 -616 -5 -1369 -6 -1300 0 -1380 1 -1578 20
-310 30 -277 31 -283 -10 l-5 -35 -60 0 -60 0 -3 43 -3 42 -779 0 -779 0 -3
-42 -3 -43 -60 0 -60 0 -3 37 c-3 35 -5 36 -35 32 -18 -2 -126 -13 -242 -24
-196 -19 -293 -20 -1480 -20 -1258 0 -1271 0 -1288 20 -15 18 -28 20 -154 19
-91 -1 -129 -4 -113 -10 16 -5 -20 -7 -97 -5 l-122 3 36 -29 36 -28 -33 0
c-23 0 -33 5 -37 20 -7 26 -29 26 -36 0 -4 -17 -14 -20 -66 -20 -43 0 -62 4
-68 15 -8 13 -58 15 -375 15 -342 0 -375 2 -517 25 -83 14 -161 25 -173 25
-12 0 -29 6 -37 13 -13 11 -98 12 -476 5 -583 -12 -2412 -15 -2526 -4 -105 9
-212 -4 -274 -35 -64 -32 -171 -122 -249 -209 -37 -41 -88 -99 -114 -128 -47
-52 -101 -151 -102 -186 0 -27 15 -9 29 34 16 49 179 249 253 311 35 29 91 65
125 81 l63 28 2185 0 2185 0 0 -230 0 -230 -204 0 -205 0 -62 -75 -62 -75
-1263 0 -1263 0 -82 90 c-53 58 -90 90 -103 90 -55 -1 -832 -141 -841 -152 -5
-7 -22 -19 -37 -27 -34 -18 -27 -31 17 -31 33 0 34 -1 29 -30 -9 -42 2 -76 34
-105 l27 -25 -488 0 c-480 0 -487 0 -487 -20 0 -20 7 -20 9610 -20 9603 0
9610 0 9610 20 0 20 -7 20 -490 20 -269 0 -490 2 -490 5 0 2 12 16 26 30 22
22 25 33 22 75 l-3 50 32 0 c44 0 51 18 14 33 -17 7 -29 16 -26 19 3 3 -7 10
-22 16 -28 10 -805 143 -834 142 -8 0 -53 -40 -98 -90 l-82 -90 -1263 0 -1263
0 -63 75 -62 75 -202 2 -201 3 0 225 0 225 2182 3 2182 2 57 -25 c73 -32 171
-111 234 -188 27 -34 55 -68 61 -75 8 -9 7 -17 -2 -28 -9 -12 -9 -13 2 -9 27
10 92 -114 79 -151 -4 -10 -6 -27 -4 -37 2 -14 -2 -18 -17 -14 -24 6 -25 -10
-1 -17 16 -6 17 -11 8 -51 -9 -40 -14 -46 -46 -52 -19 -4 -69 -7 -110 -6 -41
1 -135 3 -208 5 -130 3 -161 -3 -130 -26 8 -6 15 -22 14 -35 -1 -21 6 -26 54
-37 87 -21 100 -19 100 15 0 16 6 33 13 39 6 6 88 14 180 18 135 5 167 10 163
20 -8 22 4 44 25 44 11 0 22 -7 26 -15 4 -12 9 -10 19 11 18 34 11 44 -32 44
l-34 0 0 50 c0 28 5 50 10 50 34 0 -21 135 -78 190 -20 19 -66 69 -101 110
-118 138 -266 252 -344 265 -23 4 -96 6 -162 4 -234 -6 -2117 0 -2570 9 -378
7 -463 6 -476 -5 -8 -7 -25 -13 -37 -13 -12 0 -90 -11 -174 -25 -143 -23 -175
-25 -519 -25 -317 0 -368 -2 -373 -15 -4 -11 -21 -15 -67 -15 -52 0 -62 3 -66
20 -3 11 -11 20 -18 20 -7 0 -15 -9 -18 -20 -4 -17 -14 -20 -60 -20 -32 0 -59
5 -63 12 -5 8 3 9 31 5 31 -5 43 -2 67 18 l30 25 -25 0 c-47 0 -95 30 -160
100 -89 96 -95 89 -8 -10z m-5154 -192 c3 -18 2 -121 -2 -228 l-8 -195 -202
-3 -201 -2 -48 -56 c-26 -30 -54 -64 -62 -75 -13 -19 -37 -19 -1270 -19
l-1257 1 -63 74 -62 75 -199 0 -198 0 -7 38 c-8 50 -8 407 1 415 3 4 809 7
1789 7 l1783 0 6 -32z m1690 23 c3 -6 2 -109 -1 -230 l-7 -221 -777 0 -777 0
-7 221 c-3 121 -4 224 -1 230 8 12 1562 12 1570 0z m3703 -181 c2 -102 0 -204
-3 -227 l-6 -43 -202 -2 -201 -3 -61 -72 -60 -73 -1255 0 -1255 0 -60 73 -61
72 -205 3 -206 2 -6 208 c-4 114 -4 217 -1 230 l6 22 1787 -2 1786 -3 3 -185z
m-12193 -490 l54 -40 1272 0 1272 0 34 40 c29 34 40 40 74 40 l39 0 -6 -43
c-6 -39 -3 -48 26 -80 l32 -37 -1502 0 -1502 0 32 37 c28 32 32 41 27 80 l-5
43 50 0 c41 0 57 -6 103 -40z m3680 0 l39 -40 1273 0 1273 0 52 40 c40 30 62
40 90 40 l38 0 -6 -43 c-6 -39 -3 -48 26 -80 l32 -37 -1486 0 c-817 0 -1486 2
-1486 5 0 2 12 16 26 30 22 22 25 33 22 75 l-3 50 35 0 c29 0 44 -8 75 -40z
m3668 -2 l-2 -38 359 0 359 0 -2 38 c-2 37 -2 37 39 40 l41 3 -4 -48 c-4 -41
-1 -52 21 -76 14 -15 26 -30 26 -33 0 -2 -216 -4 -480 -4 -264 0 -480 2 -480
5 0 2 12 16 26 30 23 23 26 33 22 76 l-5 50 41 -3 c41 -3 41 -3 39 -40z m1747
2 l54 -40 1271 0 1271 0 39 40 c31 32 46 40 76 40 l36 0 -4 -47 c-4 -41 -1
-52 21 -76 14 -15 26 -30 26 -33 0 -2 -669 -4 -1486 -4 l-1486 0 32 37 c28 32
32 41 27 80 l-5 43 37 0 c28 0 51 -10 91 -40z m3683 0 l34 -40 1271 0 1271 0
57 40 c48 33 65 40 105 40 l49 0 -6 -43 c-6 -39 -3 -48 26 -80 l32 -37 -1503
0 -1503 0 33 34 c31 32 33 38 28 80 l-7 46 39 0 c34 0 45 -6 74 -40z m-13343
-50 c132 0 170 3 187 15 21 15 23 14 39 -21 9 -20 23 -38 31 -41 45 -18 -17
-23 -264 -23 -265 0 -277 1 -257 18 12 9 29 32 38 50 16 31 18 32 39 17 17
-12 55 -15 187 -15z m16356 15 c23 -22 340 -22 371 0 20 14 23 14 34 -7 6 -13
23 -35 37 -50 l26 -28 -277 0 c-250 0 -310 5 -262 24 8 3 23 21 32 41 19 40
19 40 39 20z m-12488 -31 c7 -13 19 -16 50 -12 34 5 44 2 63 -18 l22 -24 -276
0 c-152 0 -277 3 -277 6 0 3 10 14 22 23 16 13 33 17 65 13 35 -4 43 -2 43 12
0 14 17 16 140 16 119 0 140 -2 148 -16z m3700 -1 c7 -12 18 -15 46 -10 29 5
42 1 64 -18 l27 -24 -277 -1 c-153 0 -278 3 -278 6 0 3 10 14 22 24 16 12 33
16 60 12 29 -3 39 -1 44 12 5 14 26 16 145 16 118 0 139 -2 147 -17z m1696 1
c5 -13 15 -15 44 -12 27 4 44 0 60 -12 12 -10 22 -21 22 -24 0 -3 -125 -6
-277 -6 l-277 0 21 22 c17 17 32 21 66 19 32 -1 46 2 50 14 10 23 282 22 291
-1z m3700 0 c5 -13 15 -15 44 -12 27 4 44 0 60 -12 12 -10 22 -21 22 -24 0 -3
-125 -6 -277 -6 l-277 0 21 22 c17 17 32 21 66 19 32 -1 46 2 50 14 10 23 282
22 291 -1z"/>
<path d="M7366 842 c-3 -5 -6 -123 -7 -263 l-1 -254 182 0 181 0 -1 254 c0
140 -3 258 -6 262 -7 11 -341 12 -348 1z"/>
<path d="M7752 803 c2 -9 14 -20 28 -24 l25 -7 -27 -1 -28 -1 0 -129 0 -129
243 -7 c133 -3 316 -5 407 -3 l165 3 -1 120 c0 67 -3 128 -6 137 -6 14 -43 16
-350 13 -234 -1 -302 0 -213 5 72 4 131 8 133 9 1 0 2 8 2 16 0 13 -28 15
-191 15 -174 0 -190 -1 -187 -17z"/>
<path d="M5237 774 c-11 -12 -8 -262 3 -269 6 -4 477 -3 1046 1 l1035 7 -3
131 -3 131 -1036 3 c-569 1 -1038 -1 -1042 -4z"/>
<path d="M11487 843 c-4 -3 -7 -123 -7 -265 l0 -258 186 0 186 0 -6 23 c-3 12
-6 131 -6 265 l0 242 -173 0 c-96 0 -177 -3 -180 -7z"/>
<path d="M11947 773 l-68 -4 3 -132 3 -131 1043 -4 1043 -3 -3 138 -3 138
-975 1 c-536 0 -1006 -1 -1043 -3z"/>
<path d="M10635 688 c-4 -46 -5 -105 -3 -133 l3 -50 405 0 405 1 3 132 3 132
-405 0 -404 0 -7 -82z"/>
<path d="M2390 808 c0 -24 -1 -143 -4 -266 l-4 -222 185 2 184 3 -1 254 c0
140 -3 258 -6 262 -3 5 -84 9 -180 9 l-174 0 0 -42z"/>
<path d="M16456 834 c-3 -9 -6 -128 -6 -265 l0 -249 185 0 184 0 1 249 c0 138
-3 257 -6 265 -9 24 -349 24 -358 0z"/>
<path d="M18598 815 c-9 -10 21 -119 36 -130 7 -6 46 -19 86 -29 l72 -19 26
27 27 26 -30 25 c-33 28 -180 105 -199 105 -7 0 -15 -2 -18 -5z"/>
<path d="M428 738 c-34 -24 -63 -47 -63 -52 0 -6 14 -18 30 -27 29 -16 33 -16
105 6 72 21 75 24 86 61 6 21 9 42 7 47 -2 4 -26 7 -53 7 -40 0 -59 -7 -112
-42z"/>
<path d="M1543 764 c-5 -14 5 -245 12 -252 3 -3 440 -5 663 -3 l132 1 0 128 0
129 -107 6 c-58 4 -238 7 -400 7 -257 0 -294 -2 -300 -16z"/>
<path d="M3397 773 l-618 -3 3 -133 3 -132 1043 -3 1043 -4 -3 139 -3 138
-425 0 c-234 0 -703 -1 -1043 -2z"/>
<path d="M14335 769 c-3 -8 -4 -71 -3 -140 l3 -124 1000 -3 c550 -1 1019 0
1043 3 l42 6 0 130 0 129 -393 0 c-217 0 -685 3 -1040 7 -564 5 -647 4 -652
-8z"/>
<path d="M16917 773 l-68 -4 3 -131 3 -131 395 0 395 1 8 73 c4 41 6 101 5
134 l-3 60 -335 1 c-184 0 -366 -1 -403 -3z"/>
<path d="M510 258 c-80 -5 -186 -6 -237 -3 -51 4 -94 2 -97 -3 -3 -5 66 -12
162 -16 92 -4 173 -12 179 -18 7 -6 13 -21 13 -34 0 -34 13 -37 91 -22 69 12
70 13 67 40 -3 19 0 28 9 28 8 0 13 8 11 17 -4 21 -11 22 -198 11z"/>
</g>
</svg>
