<?xml version="1.0" standalone="no"?>
<!DOCTYPE svg PUBLIC "-//W3C//DTD SVG 1.1//EN" "http://www.w3.org/Graphics/SVG/1.1/DTD/svg11.dtd" >
<svg>
<metadata>
Created by FontForge 20110222 at Mon Mar  7 03:39:38 2011
 By www-data
2003 Iconian Fonts www.iconian.com
</metadata>
<defs>
<font id="DodgerShadow" horiz-adv-x="1051" >
  <font-face 
    font-family="Dodger Shadow"
    font-weight="400"
    font-stretch="normal"
    units-per-em="1000"
    panose-1="0 0 4 0 0 0 0 0 0 0"
    ascent="800"
    descent="-200"
    x-height="592"
    cap-height="592"
    bbox="-330 -313 1789 829"
    underline-thickness="20"
    underline-position="-190"
    unicode-range="U+0020-2122"
  />
    <missing-glyph />
    <glyph glyph-name="space" unicode=" " horiz-adv-x="600" 
 />
    <glyph glyph-name="space" unicode="&#xa0;" horiz-adv-x="600" 
 />
    <glyph glyph-name="exclam" unicode="!" horiz-adv-x="259" 
d="M210 -60h-170v50h-50v174h50v44h-50v384h170v-50h50v-384h-50v-44h50v-174zM0 582v-364h150v364h-150zM150 154h-150v-154h150v154z" />
    <glyph glyph-name="quotedbl" unicode="&#x22;" horiz-adv-x="481" 
d="M150 428q-24 -64 -55 -94q-32 -31 -95 -66v314h150v-154zM378 428q-24 -64 -55 -94q-32 -31 -95 -66v314h150v-154zM438 378v164h-50v50h-170v-341q14 8 26.5 15t23.5 14v-79q78 44 112 76q17 15 30.5 39t26.5 59zM210 378v164h-50v50h-170v-341q14 8 26.5 15t23.5 14
v-79q78 44 112 76q17 15 30.5 39t26.5 59z" />
    <glyph glyph-name="FL0023h" unicode="#" horiz-adv-x="1065" 
d="M308 259h365v12h-365v-12zM953 209h50v-159h-110v-110h-170v50h-50v60h-365v-110h-170v50h-50v61h-48v50h-50v158h98v13h-48v50h-50v158h98v112h170v-50h50v-62h365v112h170v-50h50v-62h60v-50h50v-159h-110v-12h60v-50zM683 249h-435v82h435v-82zM833 110h110v139h-110
v82h110v139h-110v112h-150v-112h-435v112h-150v-112h-98v-138h98v-83h-98v-138h98v-111h150v110h435v-110h150v110z" />
    <glyph glyph-name="dollar" unicode="$" 
d="M-10 164h200q-95 14 -130 75q-67 40 -70 129h50v19q0 16 3 31h-53v19q0 66 59 110q57 45 140 45h195v67h170v-50h50v-17h350v-50h50v-174h-240q70 -2 113.5 -19t62.5 -56q64 -33 64 -123v-66q0 -42 -15 -72.5t-41.5 -51t-63 -30.5t-79.5 -10h-201v-68h-170v50h-50v18
h-344v50h-50v174zM944 582h-400v67h-150v-67h-205q-79 0 -134 -43q-55 -42 -55 -102v-9h944v154zM0 0h394v-68h150v68h211q40 0 75 9.5t60 28.5t39.5 48t14.5 68v66q0 76 -46.5 107t-143.5 31h-754q2 -69 51 -102.5t137 -35.5h600v-66h-788v-154z" />
    <glyph glyph-name="FL0025h" unicode="%" horiz-adv-x="1321" 
d="M1116 176q-3 15 -20.5 26.5t-44.5 11.5h-194q-26 0 -44 -11t-19 -28v-56q0 -17 18 -28.5t45 -11.5h197q23 0 43 12q19 12 19 29v56zM719 218q0 30 27 51q28 22 67 22h283q39 0 67 -22q28 -21 28 -51v-146q0 -30 -28 -51q-27 -21 -67 -21h-283q-39 0 -67 21q-27 21 -27 51
v146zM397 465q-3 15 -20.5 26.5t-44.5 11.5h-194q-26 0 -44 -11t-19 -28v-56q0 -17 18 -28.5t45 -11.5h197q23 0 43 12q19 12 19 29v56zM0 507q0 30 27 51q28 22 67 22h283q39 0 67 -22q28 -21 28 -51v-146q0 -30 -28 -51q-27 -21 -67 -21h-283q-39 0 -67 21q-27 21 -27 51
v146zM862 582l-349 -582h-175l349 582h175zM-10 361q0 -35 31 -59q5 -5 10.5 -8t11.5 -6q8 -22 28 -36q30 -23 73 -23h283q22 0 40 6l-147 -245h80l-30 -50h199l140 233v-101q0 -35 31 -59q10 -8 22 -13q7 -21 28 -37q30 -23 73 -23h283q42 0 73 23q32 23 32 59v146
q0 36 -32 59q-5 4 -10.5 7.5t-11.5 5.5q-6 19 -28 37q-30 24 -73 24h-283q-17 0 -30 -3l147 244h-80l30 50h-199l-149 -249v114q0 36 -32 59q-5 4 -10.5 7.5t-11.5 5.5q-6 19 -28 37q-30 24 -73 24h-283q-43 0 -73 -24q-31 -24 -31 -59v-146zM1106 120q0 -12 -14 -20
q-19 -11 -38 -11h-197h-3v36q1 13 15.5 21t37.5 8h194h5v-34zM387 409q0 -12 -14 -20q-19 -11 -38 -11h-197h-3v36q1 13 15.5 21t37.5 8h194h5v-34z" />
    <glyph glyph-name="asterisk" unicode="&#x26;" horiz-adv-x="1135" 
d="M1032 362v-142h-88v-66q0 -39 -14.5 -67.5t-40 -48t-60.5 -29t-75 -9.5h-566q-41 0 -75.5 9.5t-60 29t-40 48t-14.5 67.5v66q4 58 98 66q-94 18 -98 76v66q0 38 14 67t39 48t59 28.5t74 9.5h571v-153h-601v-66h878zM154 224v-70h634v70h-634zM765 591h-581q-42 0 -78 -10
t-62.5 -30.5t-41 -51t-14.5 -71.5v-67q3 -46 53 -69q1 -2 1 -3t1 -3q-52 -18 -55 -66v-66q0 -47 19 -79.5t51 -52.5q24 -42 71.5 -62t108.5 -20h566q43 0 79.5 10t63.5 30.5t42 51.5t15 72v56h88v162h-50v50h-227v169h-50v50z" />
    <glyph glyph-name="quotesingle" unicode="'" horiz-adv-x="259" 
d="M150 428q-24 -64 -55 -94q-32 -31 -95 -66v314h150v-154zM210 378v164h-50v50h-170v-341q14 8 26.5 15t23.5 14v-79q78 44 112 76q17 15 30.5 39t26.5 59z" />
    <glyph glyph-name="parenleft" unicode="(" horiz-adv-x="455" 
d="M246 15q6 -5 13 -9.5t15 -9.5h74v-50h50v-172h-159q-84 0 -142 73q-2 2 -3 4t-3 4q-25 17 -44 42q-57 69 -57 169v466q0 102 57 168v-1q58 71 142 71h159v-50h50v-170h-73q-82 -33 -97 -92q-17 -66 -18 -115v-177q0 -52 16 -110q3 -11 7.5 -21t12.5 -20zM272 -14
q-90 56 -106 117q-16 58 -16 113v177q1 51 18 117q16 66 106 100h64v150h-149q-79 0 -134 -67q-55 -64 -55 -161v-466q0 -96 55 -163q55 -69 134 -69h149v152h-66z" />
    <glyph glyph-name="parenright" unicode=")" horiz-adv-x="455" 
d="M66 -14q90 56 106 117q16 58 16 113v177q-2 51 -18 117t-106 100h-64v150h149q79 0 134 -67q55 -64 55 -161v-466q0 -96 -55 -163q-56 -69 -134 -69h-149v152h66zM-10 -4v-172h50v-50h159q83 0 142 73q57 69 57 169v466q0 102 -57 168v-1q-10 11 -19.5 20.5t-20.5 17.5
q-2 4 -5 7t-5 6v-1q-58 71 -142 71h-159v-170h50v-50h72q11 -5 20.5 -9.5t17.5 -9.5q3 -5 5.5 -11t4.5 -12q17 -66 18 -115v-177q0 -52 -16 -110q-17 -59 -98 -110h-74z" />
    <glyph glyph-name="FL002Ah" unicode="*" horiz-adv-x="524" 
d="M221 613l35 42h205l-50 -50h100l-137 -137l136 -136h-205l-35 42l-35 -42h-205l51 50h-101l139 136l-88 87h1l-51 50h205zM181 645h-176l129 -126l-130 -127h176l40 48l40 -48h176l-126 126l127 127h-176l-40 -48z" />
    <glyph glyph-name="plus" unicode="+" horiz-adv-x="633" 
d="M523 227h-174v-118h-175v118h-174v117h174v118h175v-118h174v-117zM583 304h-50v50h-124v68h-50v50h-195v-118h-174v-137h50v-50h124v-68h50v-50h195v118h174v137z" />
    <glyph glyph-name="comma" unicode="," horiz-adv-x="259" 
d="M150 0q-24 -64 -55 -94q-32 -31 -95 -66v314h150v-154zM210 -50v164h-50v50h-170v-341q14 8 26.5 15t23.5 15v-80q78 44 112 76q31 28 57 98z" />
    <glyph glyph-name="hyphen" unicode="-" horiz-adv-x="589" 
d="M0 362h475v-138h-475v138zM-10 214h50v-50h495v158h-50v50h-495v-158z" />
    <glyph glyph-name="hyphen" unicode="&#x2010;" horiz-adv-x="589" 
d="M0 362h475v-138h-475v138zM-10 214h50v-50h495v158h-50v50h-495v-158z" />
    <glyph glyph-name="period" unicode="." horiz-adv-x="259" 
d="M0 0v154h150v-154h-150zM210 -60v174h-50v50h-170v-174h50v-50h170z" />
    <glyph glyph-name="slash" unicode="/" horiz-adv-x="639" 
d="M349 582h175l-349 -582h-175zM-18 -10h80l-30 -50h199l361 602h-80l30 50h-199z" />
    <glyph glyph-name="zero" unicode="0" 
d="M544 355h-150v-137h150v137zM795 352q-7 30 -41.5 53t-88.5 23h-388q-53 0 -89 -22.5t-38 -55.5v-112q0 -16 9.5 -30.5t26.5 -25.5t40 -17.5t50 -6.5h394q48 0 86 24q39 25 39 58v112zM0 437q0 60 55 102q55 43 134 43h566q78 0 134 -44q55 -42 55 -102v-291
q0 -60 -55 -103q-56 -42 -134 -42h-566q-79 0 -134 42q-55 43 -55 103v292zM-10 145q0 -65 59 -111q2 -2 4.5 -4t5.5 -4q13 -21 40 -42q57 -44 140 -44h566q82 0 140 44q59 46 59 111v291q0 66 -59 110l-9 6q-15 24 -41 44q-60 46 -140 46h-566q-83 0 -140 -45
q-59 -44 -59 -110v-292zM785 240q0 -28 -34 -50q-32 -22 -81 -22h-216v10h-10l10 -10h-178q-37 0 -65 11q-1 3 -1 9v111q1 15 10.5 27.5t25 21.5t36.5 14.5t45 5.5h388q39 0 69 -14q0 -3 1 -4v-110zM404 345h130v-50h50v-117h-130v50h-50v117zM544 345l-10 10v-10h10z
M404 355l-10 -10h10v10zM594 295l-10 10v-10h10zM534 218l10 10h-10v-10zM404 218v10h-10zM454 305l-10 -10h10v10zM584 168l10 10h-10v-10z" />
    <glyph glyph-name="one" unicode="1" horiz-adv-x="259" 
d="M-1 0v601h151l-1 -601h-150zM209 -60l1 621h-50v50h-171v-621h50v-50h170z" />
    <glyph glyph-name="two" unicode="2" 
d="M0 582h755q79 0 134 -43q55 -42 55 -102v-9h-944v154zM944 0h-944v220q0 76 46.5 107t143.5 31h754q-2 -69 -51 -102.5t-137 -35.5h-600v-66h788v-154zM-10 418h50v-50h140q-97 -2 -143.5 -35.5t-46.5 -112.5v-230h50v-50h964v174h-50v50h-100q70 10 109 47.5t41 106.5
h-58q3 11 5 23.5t3 26.5h50v19q0 66 -59 110q-6 4 -10 7q-14 23 -40 43q-57 45 -140 45h-765v-174z" />
    <glyph glyph-name="three" unicode="3" 
d="M-10 168h50v46h-50v158h50v46h-50v174h765q83 0 140 -45q26 -20 40 -43q4 -3 10 -7q59 -44 59 -110v-19h-50v-46h50v-227q0 -65 -59 -111q-58 -44 -140 -44h-765v50h-50v178zM944 437q0 60 -55 102q-55 43 -134 43h-755v-154h944v9zM0 0h755q78 0 134 42q55 43 55 103
v217h-944v-138h794v-66h-794v-158z" />
    <glyph glyph-name="four" unicode="4" 
d="M150 428h-150v154h150v-154zM794 582h150v-582h-150v220h-794v138h794v224zM210 542h-50v50h-170v-174h50v-50h-50v-158h50v-50h744v-170h50v-50h170v602h-50v50h-170v-224h-574v174z" />
    <glyph glyph-name="five" unicode="5" 
d="M-10 164h200q-95 14 -130 75q-67 40 -70 129h50v50h-50v174h964v-50h50v-174h-240q70 -2 113.5 -19t62.5 -56q64 -33 64 -123v-66q0 -42 -15 -72.5t-41.5 -51t-63 -30.5t-79.5 -10h-765v50h-50v174zM944 582h-944v-154h944v154zM0 0h755q40 0 75 9.5t60 28.5t39.5 48
t14.5 68v66q0 76 -46.5 107t-143.5 31h-754q2 -69 51 -102.5t137 -35.5h600v-66h-788v-154z" />
    <glyph glyph-name="six" unicode="6" 
d="M1008 364h-185q92 -12 121 -71q64 -33 64 -123v-66q0 -41 -15 -72t-42 -51.5t-63.5 -30.5t-79.5 -10h-565q-71 0 -115 19t-65 57q-69 38 -69 138v283q0 66 59 110q57 45 140 45h765v-50h50v-178zM948 582h-755q-79 0 -134 -43q-55 -42 -55 -102v-283q0 -78 46 -116
t143 -38h565q40 0 75 9.5t60.5 29t40 48t14.5 67.5v66q0 76 -46.5 107t-143.5 31h-604q0 18 36 42t90 24h668v158zM194 220h598v-66h-598v66z" />
    <glyph glyph-name="seven" unicode="7" 
d="M0 582h755q79 0 134 -43q55 -42 55 -102v-437h-150v344q0 16 -9.5 30.5t-26.5 25.5t-40 17.5t-50 6.5h-668v158zM-10 414h50v-50h678q36 0 65 -12q0 -2 0.5 -4t0.5 -4v-354h50v-50h170v447q0 66 -59 110q-6 4 -10 7q-14 23 -40 43q-57 45 -140 45h-765v-178z" />
    <glyph glyph-name="eight" unicode="8" 
d="M788 428h-790q0 39 14.5 68t39.5 47.5t59.5 28t75.5 9.5h568q40 0 75 -9.5t60 -28t39.5 -47.5t14.5 -68v-66q-4 -58 -98 -76q93 -7 98 -66v-66q0 -39 -14.5 -67.5t-40 -48t-60.5 -29t-75 -9.5h-566q-41 0 -75.5 9.5t-60 29t-40 48t-14.5 67.5v66q5 59 98 66
q-94 18 -98 76h790v66zM154 154h634v70h-634v-70zM44 291l2 -4q-55 -18 -58 -67v-66q0 -47 19 -79.5t51 -52.5q24 -42 71.5 -62t108.5 -20h566q43 0 79.5 10t63.5 30.5t42 51.5t15 72v66q-3 47 -53 65q0 2 -2 6q52 25 55 70v67q0 47 -19 79.5t-52 52.5q-24 42 -71 61.5
t-107 19.5h-568q-43 0 -79.5 -10.5t-63 -32t-41.5 -54t-15 -76.5h56q-6 -21 -6 -46h-51q5 -56 57 -81z" />
    <glyph glyph-name="nine" unicode="9" 
d="M-10 168h185q-93 12 -121 70q-32 17 -48 47t-16 77v66q0 42 15 72.5t41.5 51t63 30.5t79.5 10h566q139 0 180 -77q69 -38 69 -137v-283q0 -65 -59 -111q-58 -44 -140 -44h-765v50h-50v178zM0 0h755q78 0 134 42q55 43 55 103v283q0 78 -46 116t-143 38h-566
q-41 0 -75.5 -9.5t-59.5 -28.5t-39.5 -48t-14.5 -68v-66q0 -76 46.5 -107t143.5 -31h604q0 -18 -36 -42t-90 -24h-668v-158zM754 362h-598v66h598v-66z" />
    <glyph glyph-name="colon" unicode=":" horiz-adv-x="283" 
d="M235 -60h-195v50h-50v165h195v-50h50v-165zM235 158h-195v50h-50v166h195v-50h50v-166zM175 364h-175v-146h175v146zM175 145h-175v-145h175v145z" />
    <glyph glyph-name="semicolon" unicode=";" horiz-adv-x="283" 
d="M175 145v-145q0 -60 -51 -102q-49 -43 -124 -43h1v290h174zM1 218v146h174v-146h-174zM-9 155v-300l9 9v-19q11 0 21 1t20 3v-44l9 9v-19q80 0 131 45h-1q55 45 55 110v155h-50v50h-194zM235 158v166h-50v50h-194v-166h50v-50h194z" />
    <glyph glyph-name="less" unicode="&#x3c;" horiz-adv-x="455" 
d="M348 168v-50h50v-178h-159q-83 0 -140 44q-27 21 -40 42q-3 2 -5.5 4t-4.5 4q-59 46 -59 111v292q0 66 59 110q57 45 140 45h159v-50h50v-174h-71q-24 0 -45 -5.5t-36.5 -14.5t-25 -21.5t-10.5 -27.5v-111q0 -6 1 -9q28 -11 65 -11h72zM276 158q-27 0 -50 6.5t-40 17.5
t-26.5 25.5t-9.5 30.5v112q2 33 38 55.5t89 22.5h61v154h-149q-79 0 -134 -43q-55 -42 -55 -102v-292q0 -60 55 -103q55 -42 134 -42h149v158h-62z" />
    <glyph glyph-name="equal" unicode="=" horiz-adv-x="635" 
d="M40 228v50h-50v142h542v-50h50v-142h-542zM40 14v50h-50v144h543v-50h50v-144h-543zM523 74v124h-523v-124h523zM522 288v122h-522v-122h522z" />
    <glyph glyph-name="greater" unicode="&#x3e;" horiz-adv-x="455" 
d="M62 158q27 0 50 6.5t40 17.5t26.5 25.5t9.5 30.5v112q-2 33 -38 55.5t-89 22.5h-61v154h149q79 0 134 -43q55 -42 55 -102v-292q0 -60 -55 -103q-56 -42 -134 -42h-149v158h62zM-10 168v-178h50v-50h159q82 0 140 44q59 46 59 111v292q0 66 -59 110q-6 4 -10 7
q-14 23 -40 43q-57 45 -140 45h-159v-174h50v-50h71q19 0 35.5 -3.5t30.5 -8.5q0 -2 0.5 -3.5t0.5 -3.5v-111q0 -29 -33 -49.5t-83 -20.5h-72z" />
    <glyph glyph-name="question" unicode="?" 
d="M210 -60h-170v50h-50v174h50v50h-50v158h50v46h-50v173h765q60 0 107 -19.5t71 -61.5q33 -20 52 -52.5t19 -79.5v-66q0 -81 -48.5 -114.5t-151.5 -33.5h-644v-50h50v-174zM150 154h-150v-154h150v154zM788 362h-788v-138h754q97 0 143.5 31t46.5 107v66q0 39 -14.5 68
t-39.5 47.5t-60 28t-75 9.5h-755v-153h788v-66z" />
    <glyph glyph-name="at" unicode="@" horiz-adv-x="917" 
d="M493 209h-93l-55 -75h216l-21 30h-15zM261 134l19 30h-82l110 170h80l7 10h-84l46 68h-98q-49 0 -83 -28q-16 -14 -25 -29.5t-9 -33.5v-144q0 -16 6 -31q25 -12 60 -12h53zM717 372q-2 7 -3.5 13t-4.5 12q-14 7 -29.5 11t-32.5 4h-199l22 -34h18l157 -244h175v-50h50
l1 -121h-659q-68 0 -122 43q-18 16 -31 36q-5 3 -9.5 6.5t-9.5 7.5q-50 44 -50 105v278q0 63 51 104q50 41 121 41h486q74 0 122 -42h-1q21 -17 32 -36q5 -3 9.5 -6.5t9.5 -7.5h-1q51 -41 51 -102v-205h-103v50h-50v137zM313 324l-97 -150h60l69 95h118l67 -95h60l-157 244
h-60l-43 -64h73l20 -30h-110zM208 124q-56 0 -90 31q-36 31 -36 72v144q0 20 10 38t28 33q36 30 89 30h388q26 0 48.5 -8t39.5 -21.5t28 -31.5t14 -37v-129h83v195q0 56 -47 94q-46 40 -115 40h-486q-67 0 -115 -39q-47 -38 -47 -96v-278q0 -56 47 -97q50 -41 115 -41h649
l-1 101h-602z" />
    <glyph glyph-name="FL0041h" unicode="A" 
d="M481 428h-193l108 154h152l396 -582h-154l-166 224h-302l-169 -224h-153l244 356h290zM-19 -10h84l-34 -50h177l169 224h279l129 -174h13l37 -50h178l-410 602h-16l-34 50h-162l-122 -174h85l-35 -50h194l1 -2h-275z" />
    <glyph glyph-name="B" unicode="B" 
d="M788 428h-788v154h755q40 0 75 -9.5t60 -28.5t39.5 -48t14.5 -68v-66q-4 -58 -98 -76q93 -7 98 -66v-66q0 -39 -14.5 -67.5t-40 -48t-60.5 -29t-75 -9.5h-754v362h788v66zM150 224v-70h638v70h-638zM-10 -10h50v-50h764q43 0 79.5 10t63.5 30.5t42 51.5t15 72v66
q-3 47 -53 65q0 2 -2 6q52 25 55 70v67q0 47 -19 80t-52 53q-24 42 -71 61.5t-107 19.5h-765v-174h50v-46h-50v-382z" />
    <glyph glyph-name="C" unicode="C" 
d="M944 0h-755q-79 0 -134 42q-55 43 -55 103v292q0 60 55 102q55 43 134 43h755v-154h-667q-53 0 -89 -22.5t-38 -55.5v-112q0 -16 9.5 -30.5t26.5 -25.5t40 -17.5t50 -6.5h668v-158zM1004 118h-50v50h-678q-37 0 -65 11q-1 3 -1 9v111q1 15 10.5 27.5t25 21.5t36.5 14.5
t45 5.5h677v174h-50v50h-765q-83 0 -140 -45q-59 -44 -59 -110v-292q0 -65 59 -111q2 -2 4.5 -4t5.5 -4q13 -21 40 -42q57 -44 140 -44h765v178z" />
    <glyph glyph-name="D" unicode="D" 
d="M795 352q-7 30 -41.5 53t-88.5 23h-665v154h755q78 0 134 -44q55 -42 55 -102v-291q0 -60 -55 -103q-56 -42 -134 -42h-755v364h150v-206h520q48 0 86 24q39 25 39 58v112zM-10 -10h50v-50h765q82 0 140 44q59 46 59 111v291q0 66 -59 110l-9 6q-15 24 -41 44
q-60 46 -140 46h-765v-174h50v-44h-50v-384zM785 240q0 -28 -34 -50q-32 -22 -81 -22h-460v156h-50v44h555q39 0 69 -14q0 -3 1 -4v-110z" />
    <glyph glyph-name="E" unicode="E" 
d="M0 437q0 60 55 102q55 43 134 43h755v-154h-944v9zM944 0h-755q-79 0 -134 42q-55 43 -55 103v217h944v-138h-794v-66h794v-158zM1004 118h-50v46h50v158h-50v46h50v174h-50v50h-765q-83 0 -140 -45q-59 -44 -59 -110v-19h53q-3 -15 -3 -31v-15h-50v-227q0 -65 59 -111
q2 -2 4.5 -4t5.5 -4q13 -21 40 -42q57 -44 140 -44h765v178z" />
    <glyph glyph-name="F" unicode="F" 
d="M0 0v362h944v-138h-794v-224h-150zM0 437q0 60 55 102q55 43 134 43h755v-154h-944v9zM-10 418h53q-3 -15 -3 -31v-15h-50v-382h50v-50h170v224h794v158h-50v46h50v174h-50v50h-765q-83 0 -140 -45q-59 -44 -59 -110v-19z" />
    <glyph glyph-name="G" unicode="G" 
d="M944 145q0 -60 -55 -103q-56 -42 -134 -42h-566q-79 0 -134 42q-55 43 -55 103v292q0 60 55 102q55 43 134 43h755v-154h-667q-53 0 -89 -22.5t-38 -55.5v-112q0 -16 9.5 -30.5t26.5 -25.5t40 -17.5t50 -6.5h394q48 0 81 20t37 48h-498v136h654v-217zM1004 322h-50v46h50
v174h-50v50h-765q-83 0 -140 -45q-59 -44 -59 -110v-292q0 -65 59 -111q2 -2 4.5 -4t5.5 -4q13 -21 40 -42q57 -44 140 -44h566q82 0 140 44q59 46 59 111v227zM211 179q-1 3 -1 9v111q2 22 20.5 38.5t49.5 24.5v-146h50v-48h-54q-37 0 -65 11z" />
    <glyph glyph-name="H" unicode="H" 
d="M794 582h150v-582h-150v220h-644v-220h-150v582h150v-224h644v224zM160 592h-170v-602h50v-50h170v220h574v-170h50v-50h170v602h-50v50h-170v-224h-574v174h-50v50z" />
    <glyph glyph-name="I" unicode="I" horiz-adv-x="259" 
d="M0 0v582h150v-582h-150zM210 -60v602h-50v50h-170v-602h50v-50h170z" />
    <glyph glyph-name="J" unicode="J" 
d="M795 582h149v-437q0 -60 -55 -103q-56 -42 -134 -42h-566q-79 0 -134 42q-55 43 -55 103v93h150q0 -16 9.5 -30.5t26.5 -25.5t40 -17.5t50 -6.5h394q48 0 86 24q39 25 39 58v342zM785 240q0 -28 -34 -50q-32 -22 -81 -22h-394q-34 0 -63 13q-3 7 -3 17h-25q-25 22 -25 50
h-170v-103q0 -65 59 -111q2 -2 4.5 -4t5.5 -4q13 -21 40 -42q57 -44 140 -44h566q82 0 140 44q59 46 59 111v447h-50v50h-169v-352z" />
    <glyph glyph-name="K" unicode="K" 
d="M150 224v-224h-150v582h150v-224h440l190 224h164l-242 -288l242 -294h-164l-190 224h-440zM775 -10h7l43 -50h190l-250 304l250 298h-92l42 50h-190l-190 -224h-375v174h-50v50h-170v-602h50v-50h170v224h418z" />
    <glyph glyph-name="L" unicode="L" 
d="M944 0h-755q-79 0 -134 42q-55 43 -55 103v437h150v-344q0 -16 9.5 -30.5t26.5 -25.5t40 -17.5t50 -6.5h668v-158zM1004 118h-50v50h-678q-37 0 -65 11q-1 3 -1 9v354h-50v50h-170v-447q0 -65 59 -111q2 -2 4.5 -4t5.5 -4q13 -21 40 -42q57 -44 140 -44h765v178z" />
    <glyph glyph-name="M" unicode="M" 
d="M-10 368h50v50h-50v174h221l33 -50h17l223 -332l241 382h229v-50h50v-602h-170v50h-50v275l-205 -325h-110l-32 50h-18l-240 378h-19v-50h50v-378h-170v50h-50v378zM944 0v582h-214l-254 -402l-270 402h-206v-154h152l272 -428h100l270 428v-428h150zM0 0h150v358h-150
v-358z" />
    <glyph glyph-name="N" unicode="N" 
d="M157 592l627 -416v416h170v-50h50v-602h-163l-642 428h-39v-50h50v-378h-170v50h-50v378h50v50h-50v174h167zM0 0h150v358h-150v-358zM0 582v-154h152l642 -428h150v582h-150v-424l-640 424h-154z" />
    <glyph glyph-name="O" unicode="O" 
d="M795 352q-7 30 -41.5 53t-88.5 23h-388q-53 0 -89 -22.5t-38 -55.5v-112q0 -16 9.5 -30.5t26.5 -25.5t40 -17.5t50 -6.5h389q53 0 91 24q39 25 39 58v112zM0 437q0 60 55 102q55 43 134 43h566q78 0 134 -44q55 -42 55 -102v-291q0 -60 -55 -103q-56 -42 -134 -42h-566
q-79 0 -134 42q-55 43 -55 103v292zM-10 145q0 -65 59 -111q2 -2 4.5 -4t5.5 -4q13 -21 40 -42q57 -44 140 -44h566q82 0 140 44q59 46 59 111v291q0 66 -59 110l-9 6q-15 24 -41 44q-60 46 -140 46h-566q-83 0 -140 -45q-59 -44 -59 -110v-292zM785 240q0 -28 -34 -50
t-86 -22h-389q-37 0 -65 11q-1 3 -1 9v111q1 15 10.5 27.5t25 21.5t36.5 14.5t45 5.5h388q39 0 69 -14q0 -3 1 -4v-110z" />
    <glyph glyph-name="P" unicode="P" 
d="M0 582h755q40 0 75 -9.5t60 -28.5t39.5 -48t14.5 -68v-66q0 -76 -46.5 -107t-143.5 -31h-604v-224h-150v362h788v66h-788v154zM-10 418h50v-46h-50v-382h50v-50h170v224h594q103 0 151.5 33.5t48.5 114.5v66q0 47 -19 80t-52 53q-24 42 -71 61.5t-107 19.5h-765v-174z
" />
    <glyph glyph-name="Q" unicode="Q" 
d="M680 160q42 0 76 22q39 25 39 58v112q-7 30 -41.5 53t-88.5 23h-388q-53 0 -89 -22.5t-38 -55.5v-112q0 -16 9.5 -30.5t26.5 -25.5t40 -17.5t50 -6.5h116v141h152v-139h136zM0 437q0 60 55 102q55 43 134 43h566q78 0 134 -44q55 -42 55 -102v-291q0 -60 -55 -103
q-56 -42 -134 -42h-566q-79 0 -134 42q-55 43 -55 103v292zM-10 145q0 -65 59 -111q2 -2 4.5 -4t5.5 -4q13 -21 40 -42q57 -44 140 -44h566q82 0 140 44q59 46 59 111v291q0 66 -59 110l-9 6q-15 24 -41 44q-60 46 -140 46h-566q-83 0 -140 -45q-59 -44 -59 -110v-292z
M554 309h-172v-141h-106q-37 0 -65 11q-1 3 -1 9v111q1 15 10.5 27.5t25 21.5t36.5 14.5t45 5.5h388q39 0 69 -14q0 -3 1 -4v-110q0 -28 -34 -50q-30 -20 -71 -20h-76v89h-50v50z" />
    <glyph glyph-name="R" unicode="R" 
d="M150 224v-224h-150v362h788v66h-788v154h755q40 0 75 -9.5t60 -28.5t39.5 -48t14.5 -68v-66q0 -76 -46.5 -107t-143.5 -31l190 -224h-164l-190 224h-440zM775 -10h7l43 -50h191l-191 224q91 3 135 37t44 111v66q0 47 -19 80t-52 53q-24 42 -71 61.5t-107 19.5h-765v-174
h50v-46h-50v-382h50v-50h170v224h418z" />
    <glyph glyph-name="S" unicode="S" 
d="M-10 437q0 66 59 110q57 45 140 45h765v-50h50v-174h-240q70 -2 113.5 -19t62.5 -56q64 -33 64 -123v-66q0 -41 -15 -72t-42 -51.5t-63.5 -30.5t-79.5 -10h-764v50h-50v174h198q-48 7 -81 25t-50 50q-64 37 -67 119v79zM0 358q2 -69 51 -102.5t137 -35.5h600v-66h-788
v-154h754q40 0 75 9.5t60.5 29t40 48t14.5 67.5v66q0 76 -46.5 107t-143.5 31h-604v70h794v154h-755q-79 0 -134 -43q-55 -42 -55 -102v-39v-40z" />
    <glyph glyph-name="T" unicode="T" 
d="M394 0v428h-394v154h944v-154h-400v-428h-150zM604 -60v428h400v174h-50v50h-964v-174h50v-50h344v-378h50v-50h170z" />
    <glyph glyph-name="U" unicode="U" 
d="M795 582h149v-437q0 -60 -55 -103q-56 -42 -134 -42h-566q-79 0 -134 42q-55 43 -55 103v437h150v-344q0 -16 9.5 -30.5t26.5 -25.5t40 -17.5t50 -6.5h394q48 0 86 24q39 25 39 58v342zM785 240q0 -28 -34 -50q-32 -22 -81 -22h-394q-37 0 -65 11q-1 3 -1 9v354h-50v50
h-170v-447q0 -65 59 -111q2 -2 4.5 -4t5.5 -4q13 -21 40 -42q57 -44 140 -44h566q82 0 140 44q59 46 59 111v447h-50v50h-169v-352z" />
    <glyph glyph-name="FL0056h" unicode="V" 
d="M476 156l292 428h176l-396 -584h-152l-396 586l172 -2zM227 544h-15l-35 50l-196 2l410 -606h16l34 -50h162l410 604h-84l34 50h-200l-280 -410z" />
    <glyph glyph-name="W" unicode="W" 
d="M944 582v-582h-214l-254 402l-270 -402h-206v582h150v-428l274 428h100l270 -428v428h150zM784 592v-375l-205 325h-19l-31 50h-110l-209 -327v277h-50v50h-170v-602h50v-50h221l255 380l209 -330h18l32 -50h229v602h-50v50h-170z" />
    <glyph glyph-name="X" unicode="X" 
d="M126 428l-126 154h164l130 -154h-104h-64zM164 0h-164l242 294l-54 64h402l190 224h164l-242 -288l242 -294h-164l-190 224h-236zM585 368h-219l-147 174h-8l-42 50h-190l142 -174h9l41 -50h-5l63 -74l-250 -304h91l-41 -50h190l189 224h220l147 -174h7l43 -50h190
l-250 304l250 298h-92l42 50h-190z" />
    <glyph glyph-name="Y" unicode="Y" 
d="M150 428h-150v154h150v-154zM394 0v224h-246q-55 0 -101 31q-47 32 -47 107h788v220h156v-220q0 -76 -46.5 -107t-143.5 -31h-210v-224h-150zM210 542h-50v50h-170v-174h50v-46h-50q0 -91 51 -125q4 -3 7.5 -5.5t7.5 -4.5q14 -26 35 -40q49 -33 107 -33h186v-174h50v-50
h170v224h200q103 0 151.5 33.5t48.5 114.5v230h-50v50h-176v-220h-568v170z" />
    <glyph glyph-name="Z" unicode="Z" 
d="M0 582h944v-154h-944v154zM944 0h-944v220q0 76 46.5 107t143.5 31h754q-2 -69 -51 -102.5t-137 -35.5h-600v-66h788v-154zM-10 418h50v-50h140q-97 -2 -143.5 -35.5t-46.5 -112.5v-230h50v-50h964v174h-50v50h-100q70 10 109 47.5t41 106.5h-58q3 11 5 23.5t3 26.5h50
v174h-50v50h-964v-174z" />
    <glyph glyph-name="bracketleft" unicode="[" horiz-adv-x="455" 
d="M246 15q6 -5 13 -9.5t15 -9.5h74v-50h50v-172h-159q-84 0 -142 73q-2 2 -3 4t-3 4q-25 17 -44 42q-57 69 -57 169v466q0 102 57 168v-1q58 71 142 71h159v-50h50v-170h-73q-82 -33 -97 -92q-17 -66 -18 -115v-177q0 -52 16 -110q3 -11 7.5 -21t12.5 -20zM272 -14
q-90 56 -106 117q-16 58 -16 113v177q1 51 18 117q16 66 106 100h64v150h-149q-79 0 -134 -67q-55 -64 -55 -161v-466q0 -96 55 -163q55 -69 134 -69h149v152h-66z" />
    <glyph glyph-name="backslash" unicode="\" horiz-adv-x="639" 
d="M592 -60h-199l-30 50h-20l-361 602h199l30 -50h20zM175 582h-175l349 -582h175z" />
    <glyph glyph-name="bracketright" unicode="]" horiz-adv-x="455" 
d="M66 -14q90 56 106 117q16 58 16 113v177q-2 51 -18 117t-106 100h-64v150h149q79 0 134 -67q55 -64 55 -161v-466q0 -96 -55 -163q-56 -69 -134 -69h-149v152h66zM-10 -4v-172h50v-50h159q83 0 142 73q57 69 57 169v466q0 102 -57 168v-1q-10 11 -19.5 20.5t-20.5 17.5
q-2 4 -5 7t-5 6v-1q-58 71 -142 71h-159v-170h50v-50h72q11 -5 20.5 -9.5t17.5 -9.5q3 -5 5.5 -11t4.5 -12q17 -66 18 -115v-177q0 -52 -16 -110q-17 -59 -98 -110h-74z" />
    <glyph glyph-name="FL005Eh" unicode="^" horiz-adv-x="516" 
d="M305 332l-35 42l-35 -42h-205l51 50h-101l176 172h132l222 -222h-205zM436 392l-152 152h-124l-156 -152h176l40 48l40 -48h176z" />
    <glyph glyph-name="underscore" unicode="_" horiz-adv-x="865" 
d="M38 -248v50h-50v137h894v-50h50v-137h-894zM872 -188v117h-874v-117h874z" />
    <glyph glyph-name="FL0060h" unicode="`" horiz-adv-x="317" 
d="M12 798h176l60 -136h-176zM66 652h28l22 -50h197l-69 156h-28l-22 50h-197z" />
    <glyph glyph-name="a" unicode="a" 
d="M481 428h-193l108 154h152l396 -582h-154l-166 224h-302l-169 -224h-153l244 356h290zM-19 -10h84l-34 -50h177l169 224h279l129 -174h13l37 -50h178l-410 602h-16l-34 50h-162l-122 -174h85l-35 -50h194l1 -2h-275z" />
    <glyph glyph-name="b" unicode="b" 
d="M788 428h-788v154h755q40 0 75 -9.5t60 -28.5t39.5 -48t14.5 -68v-66q-4 -58 -98 -76q93 -7 98 -66v-66q0 -39 -14.5 -67.5t-40 -48t-60.5 -29t-75 -9.5h-754v362h788v66zM150 224v-70h638v70h-638zM-10 -10h50v-50h764q43 0 79.5 10t63.5 30.5t42 51.5t15 72v66
q-3 47 -53 65q0 2 -2 6q52 25 55 70v67q0 47 -19 80t-52 53q-24 42 -71 61.5t-107 19.5h-765v-174h50v-46h-50v-382z" />
    <glyph glyph-name="c" unicode="c" 
d="M944 0h-755q-79 0 -134 42q-55 43 -55 103v292q0 60 55 102q55 43 134 43h755v-154h-667q-53 0 -89 -22.5t-38 -55.5v-112q0 -16 9.5 -30.5t26.5 -25.5t40 -17.5t50 -6.5h668v-158zM1004 118h-50v50h-678q-37 0 -65 11q-1 3 -1 9v111q1 15 10.5 27.5t25 21.5t36.5 14.5
t45 5.5h677v174h-50v50h-765q-83 0 -140 -45q-59 -44 -59 -110v-292q0 -65 59 -111q2 -2 4.5 -4t5.5 -4q13 -21 40 -42q57 -44 140 -44h765v178z" />
    <glyph glyph-name="d" unicode="d" 
d="M795 352q-7 30 -41.5 53t-88.5 23h-665v154h755q78 0 134 -44q55 -42 55 -102v-291q0 -60 -55 -103q-56 -42 -134 -42h-755v364h150v-206h520q48 0 86 24q39 25 39 58v112zM-10 -10h50v-50h765q82 0 140 44q59 46 59 111v291q0 66 -59 110l-9 6q-15 24 -41 44
q-60 46 -140 46h-765v-174h50v-44h-50v-384zM785 240q0 -28 -34 -50q-32 -22 -81 -22h-460v156h-50v44h555q39 0 69 -14q0 -3 1 -4v-110z" />
    <glyph glyph-name="e" unicode="e" 
d="M0 437q0 60 55 102q55 43 134 43h755v-154h-944v9zM944 0h-755q-79 0 -134 42q-55 43 -55 103v217h944v-138h-794v-66h794v-158zM1004 118h-50v46h50v158h-50v46h50v174h-50v50h-765q-83 0 -140 -45q-59 -44 -59 -110v-19h53q-3 -15 -3 -31v-15h-50v-227q0 -65 59 -111
q2 -2 4.5 -4t5.5 -4q13 -21 40 -42q57 -44 140 -44h765v178z" />
    <glyph glyph-name="f" unicode="f" 
d="M0 0v362h944v-138h-794v-224h-150zM0 437q0 60 55 102q55 43 134 43h755v-154h-944v9zM-10 418h53q-3 -15 -3 -31v-15h-50v-382h50v-50h170v224h794v158h-50v46h50v174h-50v50h-765q-83 0 -140 -45q-59 -44 -59 -110v-19z" />
    <glyph glyph-name="g" unicode="g" 
d="M944 145q0 -60 -55 -103q-56 -42 -134 -42h-566q-79 0 -134 42q-55 43 -55 103v292q0 60 55 102q55 43 134 43h755v-154h-667q-53 0 -89 -22.5t-38 -55.5v-112q0 -16 9.5 -30.5t26.5 -25.5t40 -17.5t50 -6.5h394q48 0 81 20t37 48h-498v136h654v-217zM1004 322h-50v46h50
v174h-50v50h-765q-83 0 -140 -45q-59 -44 -59 -110v-292q0 -65 59 -111q2 -2 4.5 -4t5.5 -4q13 -21 40 -42q57 -44 140 -44h566q82 0 140 44q59 46 59 111v227zM211 179q-1 3 -1 9v111q2 22 20.5 38.5t49.5 24.5v-146h50v-48h-54q-37 0 -65 11z" />
    <glyph glyph-name="h" unicode="h" 
d="M0 0v582h150v-582h-150zM794 582h150v-582h-150v220h-574v138h574v224zM210 -60v270h50v-50h524v-170h50v-50h170v602h-50v50h-170v-224h-574v174h-50v50h-170v-602h50v-50h170z" />
    <glyph glyph-name="i" unicode="i" horiz-adv-x="259" 
d="M0 0v364h150v-364h-150zM150 428h-150v154h150v-154zM210 -60v384h-50v44h50v174h-50v50h-170v-174h50v-44h-50v-384h50v-50h170z" />
    <glyph glyph-name="j" unicode="j" 
d="M795 582h149v-437q0 -60 -55 -103q-56 -42 -134 -42h-566q-79 0 -134 42q-55 43 -55 103v93h150q0 -16 9.5 -30.5t26.5 -25.5t40 -17.5t50 -6.5h394q48 0 86 24q39 25 39 58v342zM785 240q0 -28 -34 -50q-32 -22 -81 -22h-394q-34 0 -63 13q-3 7 -3 17h-25q-25 22 -25 50
h-170v-103q0 -65 59 -111q2 -2 4.5 -4t5.5 -4q13 -21 40 -42q57 -44 140 -44h566q82 0 140 44q59 46 59 111v447h-50v50h-169v-352z" />
    <glyph glyph-name="k" unicode="k" 
d="M220 224v134h370l190 224h164l-242 -288l242 -294h-164l-190 224h-370zM0 0v582h150v-582h-150zM210 -60v274h50v-50h368l147 -174h7l43 -50h190l-250 304l250 298h-92l42 50h-190l-190 -224h-375v174h-50v50h-170v-602h50v-50h170z" />
    <glyph glyph-name="l" unicode="l" 
d="M944 0h-755q-79 0 -134 42q-55 43 -55 103v437h150v-344q0 -16 9.5 -30.5t26.5 -25.5t40 -17.5t50 -6.5h668v-158zM1004 118h-50v50h-678q-37 0 -65 11q-1 3 -1 9v354h-50v50h-170v-447q0 -65 59 -111q2 -2 4.5 -4t5.5 -4q13 -21 40 -42q57 -44 140 -44h765v178z" />
    <glyph glyph-name="m" unicode="m" 
d="M40 368v50h-50v174h221l33 -50h17l223 -332l241 382h229v-50h50v-602h-170v50h-50v275l-205 -325h-110l-32 50h-18l-240 378h-19v-50h50v-378h-170v50h-50v378h50zM944 0v582h-214l-254 -402l-270 402h-206v-154h152l272 -428h100l270 428v-428h150zM0 358v-358h150v358
h-150z" />
    <glyph glyph-name="n" unicode="n" 
d="M0 0v582h755q78 0 134 -44q55 -42 55 -102v-436h-150v352q-6 30 -40.5 53t-88.5 23h-517l2 -428h-150zM210 -60l-2 428h507q37 0 68 -13q0 -4 1 -5v-360h50v-50h170v446q0 66 -59 110l-9 6q-15 24 -41 44q-60 46 -140 46h-765v-602h50v-50h170z" />
    <glyph glyph-name="o" unicode="o" 
d="M795 352q-7 30 -41.5 53t-88.5 23h-388q-53 0 -89 -22.5t-38 -55.5v-112q0 -16 9.5 -30.5t26.5 -25.5t40 -17.5t50 -6.5h394q48 0 86 24q39 25 39 58v112zM0 437q0 60 55 102q55 43 134 43h566q78 0 134 -44q55 -42 55 -102v-291q0 -60 -55 -103q-56 -42 -134 -42h-566
q-79 0 -134 42q-55 43 -55 103v292zM-10 145q0 -65 59 -111q2 -2 4.5 -4t5.5 -4q13 -21 40 -42q57 -44 140 -44h566q82 0 140 44q59 46 59 111v291q0 66 -59 110l-9 6q-15 24 -41 44q-60 46 -140 46h-566q-83 0 -140 -45q-59 -44 -59 -110v-292zM785 240q0 -28 -34 -50
q-32 -22 -81 -22h-394q-37 0 -65 11q-1 3 -1 9v111q1 15 10.5 27.5t25 21.5t36.5 14.5t45 5.5h388q39 0 69 -14q0 -3 1 -4v-110z" />
    <glyph glyph-name="p" unicode="p" 
d="M0 582h755q40 0 75 -9.5t60 -28.5t39.5 -48t14.5 -68v-66q0 -76 -46.5 -107t-143.5 -31h-604v-224h-150v362h788v66h-788v154zM-10 418h50v-46h-50v-382h50v-50h170v224h594q103 0 151.5 33.5t48.5 114.5v66q0 47 -19 80t-52 53q-24 42 -71 61.5t-107 19.5h-765v-174z
" />
    <glyph glyph-name="q" unicode="q" 
d="M680 160q42 0 76 22q39 25 39 58v112q-7 30 -41.5 53t-88.5 23h-388q-53 0 -89 -22.5t-38 -55.5v-112q0 -16 9.5 -30.5t26.5 -25.5t40 -17.5t50 -6.5h116v141h152v-139h136zM0 437q0 60 55 102q55 43 134 43h566q78 0 134 -44q55 -42 55 -102v-291q0 -60 -55 -103
q-56 -42 -134 -42h-566q-79 0 -134 42q-55 43 -55 103v292zM-10 145q0 -65 59 -111q2 -2 4.5 -4t5.5 -4q13 -21 40 -42q57 -44 140 -44h566q82 0 140 44q59 46 59 111v291q0 66 -59 110l-9 6q-15 24 -41 44q-60 46 -140 46h-566q-83 0 -140 -45q-59 -44 -59 -110v-292z
M554 309h-172v-141h-106q-37 0 -65 11q-1 3 -1 9v111q1 15 10.5 27.5t25 21.5t36.5 14.5t45 5.5h388q39 0 69 -14q0 -3 1 -4v-110q0 -28 -34 -50q-30 -20 -71 -20h-76v89h-50v50z" />
    <glyph glyph-name="r" unicode="r" 
d="M150 224v-224h-150v362h788v66h-788v154h755q40 0 75 -9.5t60 -28.5t39.5 -48t14.5 -68v-66q0 -76 -46.5 -107t-143.5 -31l190 -224h-164l-190 224h-440zM775 -10h7l43 -50h191l-191 224q91 3 135 37t44 111v66q0 47 -19 80t-52 53q-24 42 -71 61.5t-107 19.5h-765v-174
h50v-46h-50v-382h50v-50h170v224h418z" />
    <glyph glyph-name="s" unicode="s" 
d="M0 437q0 60 55 102q55 43 134 43h755v-154h-944v9zM788 154v66h-600q-88 2 -137 35.5t-51 102.5h754q97 0 143.5 -31t46.5 -107v-66q0 -39 -14.5 -68t-39.5 -47.5t-60 -28t-75 -9.5h-755v153h788zM-10 418h53q-3 -15 -3 -31v-19h-50q3 -89 70 -129q35 -61 130 -75h-200
v-173h50v-50h765q43 0 79.5 10t63 30t41.5 50.5t15 72.5v66q0 90 -64 123q-19 39 -62.5 56t-113.5 19h240v174h-50v50h-765q-83 0 -140 -45q-59 -44 -59 -110v-19z" />
    <glyph glyph-name="t" unicode="t" 
d="M394 0v428h-394v154h944v-154h-400v-428h-150zM604 -60v428h400v174h-50v50h-964v-174h50v-50h344v-378h50v-50h170z" />
    <glyph glyph-name="u" unicode="u" 
d="M795 582h149v-437q0 -60 -55 -103q-56 -42 -134 -42h-566q-79 0 -134 42q-55 43 -55 103v437h150v-344q0 -16 9.5 -30.5t26.5 -25.5t40 -17.5t50 -6.5h394q48 0 86 24q39 25 39 58v342zM785 240q0 -28 -34 -50q-32 -22 -81 -22h-394q-37 0 -65 11q-1 3 -1 9v354h-50v50
h-170v-447q0 -65 59 -111q2 -2 4.5 -4t5.5 -4q13 -21 40 -42q57 -44 140 -44h566q82 0 140 44q59 46 59 111v447h-50v50h-169v-352z" />
    <glyph glyph-name="FL0076h" unicode="v" 
d="M476 156l292 428h176l-396 -584h-152l-396 586l172 -2zM227 544h-15l-35 50l-196 2l410 -606h16l34 -50h162l410 604h-84l34 50h-200l-280 -410z" />
    <glyph glyph-name="w" unicode="w" 
d="M944 582v-582h-214l-254 402l-270 -402h-206v582h150v-428l274 428h100l270 -428v428h150zM784 592v-375l-205 325h-19l-31 50h-110l-209 -327v277h-50v50h-170v-602h50v-50h221l255 380l209 -330h18l32 -50h229v602h-50v50h-170z" />
    <glyph glyph-name="x" unicode="x" 
d="M164 0h-164l242 294l-242 288h164l190 -224v-134zM428 224v134h162l190 224h164l-242 -288l242 -294h-164l-190 224h-162zM775 -10h7l43 -50h190l-250 304l250 298h-92l42 50h-190l-190 -224h-167v-154h50v-50h160zM414 170v142l-195 230h-8l-42 50h-190l250 -298
l-250 -304h91l-41 -50h190z" />
    <glyph glyph-name="y" unicode="y" 
d="M394 160h150v-160h-150v160zM156 362h632v220h156v-220q0 -76 -46.5 -107t-143.5 -31h-604q-66 0 -108 31.5t-42 106.5v220h156v-220zM384 -10h50v-50h170v180h-50v44h250q103 0 151.5 33.5t48.5 114.5v230h-50v50h-176v-220h-562v170h-50v50h-176v-230q0 -50 17.5 -81
t48.5 -48q19 -37 56.5 -53t87.5 -16h184v-174z" />
    <glyph glyph-name="z" unicode="z" 
d="M0 582h944v-154h-944v154zM944 0h-944v154l546 204h398l-554 -204h554v-154zM-10 418h50v-50h506l-556 -208v-170h50v-50h964v174h-50v50h-324l370 136l-3 18h-134l87 32l-3 18h57v174h-50v50h-964v-174z" />
    <glyph glyph-name="braceleft" unicode="{" horiz-adv-x="388" 
d="M289 592v-50h50v-166q-31 0 -69 -32q-35 -30 -35 -44v-119q0 -4 1 -6q27 -20 53 -21v-31q25 -18 50 -19v-164h-114q-36 0 -110 65q-20 17 -33.5 31t-23.5 25q-68 62 -68 84v292q0 28 77 92q75 63 108 63h114zM175 582q-29 0 -102 -61t-73 -84v-292q0 -19 72 -82t103 -63
h104v145q-29 3 -67 36q-38 35 -37 51v117q-1 19 39 53t65 34v146h-104z" />
    <glyph glyph-name="FL007Ch" unicode="|" horiz-adv-x="259" 
d="M-1 -83v751h153v-751h-153zM212 -143v771h-50v50h-173v-771h50v-50h173z" />
    <glyph glyph-name="braceright" unicode="}" horiz-adv-x="388" 
d="M104 582q29 0 102 -61t73 -84v-292q0 -19 -72 -82t-103 -63h-104v145q29 3 67 36q38 35 37 51v117q1 19 -39 53t-65 34v146h104zM-10 592v-166q23 0 50 -18v-32q24 0 52 -19q2 -6 2 -7v-119q0 -12 -34 -43v1q-37 -32 -70 -35v-164h50v-50h114q36 0 110 65q75 66 75 90
v292q0 25 -66 82q-9 12 -24.5 27t-36.5 33q-75 63 -108 63h-114z" />
    <glyph glyph-name="FL007Eh" unicode="~" horiz-adv-x="577" 
d="M184 324l-48 -56h-136l135 152h113l49 -60l47 60h147l-128 -152h-135zM273 208h145l144 172h-92l42 50h-173l-39 -50h-7l-40 50h-122l-153 -172h94l-44 -50h163l43 50z" />
    <glyph glyph-name="FL20ACh" unicode="&#x20ac;" 
d="M61 -10h-84l414 604h162l34 -50h16l414 -604h-990zM768 0h180l-400 584h-152l-400 -584h176h596z" />
    <glyph glyph-name="FL201Ah" unicode="&#x201a;" horiz-adv-x="259" 
d="M150 0q-24 -64 -55 -94q-32 -31 -95 -66v314h150v-154zM210 -50v164h-50v50h-170v-341q14 8 26.5 15t23.5 15v-80q78 44 112 76q31 28 57 98z" />
    <glyph glyph-name="FL0192h" unicode="&#x192;" 
d="M954 368v-46h50v-158h-796v-225l-96 -171h-171l27 50h-77l99 185v369h50v20l34 26h-84v24l196 150h768v-50h50v-174h-50zM148 224h796v138h-944v-362l-92 -172h148l92 164v232zM944 428v154h-755l-189 -145v-9h944z" />
    <glyph glyph-name="FL201Eh" unicode="&#x201e;" horiz-adv-x="489" 
d="M210 -50q-25 -71 -58 -101q-33 -33 -112 -76v79q-11 -7 -23.5 -14t-26.5 -15v341h170v-50h50v-164zM436 -51q-25 -71 -58 -101q-33 -33 -112 -76v79q-11 -7 -23.5 -14t-26.5 -15v341h170v-50h50v-164zM376 153h-150v-314q64 35 95 66q31 30 55 94v154zM150 154h-150v-314
q64 35 95 66q31 30 55 94v154z" />
    <glyph glyph-name="FL2026h" unicode="&#x2026;" horiz-adv-x="911" 
d="M329 -60v50h-50v166h195v-50h50v-166h-195zM239 -60h-195v50h-50v166h195v-50h50v-166zM616 -60v50h-50v166h195v-50h50v-166h-195zM751 0v146h-175v-146h175zM464 0v146h-175v-146h175zM179 146h-175v-146h175v146z" />
    <glyph glyph-name="FL2021h" unicode="&#x2020;" horiz-adv-x="598" 
d="M485 430h50v-158h-156v-332h-170v50h-50v282h-119v50h-50v158h169v112h170v-50h50v-62h106v-50zM169 332v-332h150v332h156v138h-156v112h-150v-112h-169v-138h169z" />
    <glyph glyph-name="FL2020h" unicode="&#x2021;" horiz-adv-x="598" 
d="M-10 259h169v13h-119v50h-50v158h169v112h170v-50h50v-62h106v-50h50v-158h-156v-13h106v-50h50v-158h-156v-111h-170v50h-50v61h-119v50h-50v158zM169 332v-83h-169v-138h169v-111h150v111h156v138h-156v83h156v138h-156v112h-150v-112h-169v-138h169z" />
    <glyph glyph-name="FL02C6h" unicode="&#x2c6;" horiz-adv-x="516" 
d="M312 600l-35 42l-35 -42h-205l51 50h-101l176 172h132l222 -222h-205zM443 660l-152 152h-124l-156 -152h176l40 48l40 -48h176z" />
    <glyph glyph-name="FL2030h" unicode="&#x2030;" horiz-adv-x="1883" 
d="M1654 177q-3 15 -20.5 26.5t-44.5 11.5h-194q-26 0 -44 -11t-19 -28v-56q0 -17 18 -28.5t45 -11.5h197q23 0 43 12q19 12 19 29v56zM1257 219q0 30 27 51q28 22 67 22h283q39 0 67 -22q28 -21 28 -51v-146q0 -30 -28 -51q-27 -21 -67 -21h-283q-39 0 -67 21
q-27 21 -27 51v146zM1116 176q-3 15 -20.5 26.5t-44.5 11.5h-194q-26 0 -44 -11t-19 -28v-56q0 -17 18 -28.5t45 -11.5h197q23 0 43 12q19 12 19 29v56zM719 218q0 30 27 51q28 22 67 22h283q39 0 67 -22q28 -21 28 -51v-146q0 -30 -28 -51q-27 -21 -67 -21h-283
q-39 0 -67 21q-27 21 -27 51v146zM397 465q-3 15 -20.5 26.5t-44.5 11.5h-194q-26 0 -44 -11t-19 -28v-56q0 -17 18 -28.5t45 -11.5h197q23 0 43 12q19 12 19 29v56zM0 507q0 30 27 51q28 22 67 22h283q39 0 67 -22q28 -21 28 -51v-146q0 -30 -28 -51q-27 -21 -67 -21h-283
q-39 0 -67 21q-27 21 -27 51v146zM862 582l-349 -582h-175l349 582h175zM-10 361q0 -35 31 -59q5 -5 10.5 -8t11.5 -6q8 -22 28 -36q30 -23 73 -23h283q22 0 40 6l-147 -245h80l-30 -50h199l140 233v-101q0 -35 31 -59q10 -8 22 -13q7 -21 28 -37q30 -23 73 -23h283
q42 0 73 23q32 23 32 59v27q6 -20 27 -35q5 -5 10.5 -8t11.5 -6q8 -20 28 -36q30 -23 73 -23h283q42 0 73 23q32 23 32 59v146q0 36 -32 59q-5 4 -10.5 7.5t-11.5 5.5q-6 19 -28 37q-30 24 -73 24h-283q-43 0 -73 -24q-31 -24 -31 -59v-27q-8 21 -28 35q-5 4 -10.5 7.5
t-11.5 5.5q-6 19 -28 37q-30 24 -73 24h-283q-17 0 -30 -3l147 244h-80l30 50h-199l-149 -249v114q0 36 -32 59q-5 4 -10.5 7.5t-11.5 5.5q-6 19 -28 37q-30 24 -73 24h-283q-43 0 -73 -24q-31 -24 -31 -59v-146zM387 409q0 -12 -14 -20q-19 -11 -38 -11h-197h-3v36
q1 13 15.5 21t37.5 8h194h5v-34zM1106 120q0 -12 -14 -20q-19 -11 -38 -11h-197h-3v36q1 13 15.5 21t37.5 8h194h5v-34zM1644 121q0 -12 -14 -20q-19 -11 -38 -11h-197h-3v36q1 13 15.5 21t37.5 8h194h5v-34z" />
    <glyph glyph-name="FL0160h" unicode="&#x160;" 
d="M688 812l-152 -152h-124l-156 152h176l40 -48l40 48h176zM0 437q0 60 55 102q55 43 134 43h755v-154h-794v-70h604q97 0 143.5 -31t46.5 -107v-66q0 -39 -14.5 -67.5t-40 -48t-60.5 -29t-75 -9.5h-754v154h788v66h-600q-88 0 -137 34.5t-51 103.5v40v39zM-10 437v-79
q3 -83 67 -120q34 -60 125 -74h-192v-174h50v-50h764q43 0 79.5 10t63.5 30.5t42 51.5t15 72v66q0 90 -65 123q-19 39 -62.5 56t-112.5 19h240v174h-50v50h-765q-83 0 -140 -45q-59 -44 -59 -110zM507 822l-35 -42l-35 42h-205l51 -50h-1l176 -172h132l172 172h-100l50 50
h-205z" />
    <glyph glyph-name="FL2039h" unicode="&#x2039;" horiz-adv-x="255" 
d="M160 72l-152 152v124l152 156v-176l-48 -40l48 -40v-176zM220 203l-43 35l43 35v205l-50 -51v101l-172 -176v-132l222 -222v205z" />
    <glyph glyph-name="FL0152h" unicode="&#x152;" horiz-adv-x="1759" 
d="M211 179q28 -11 65 -11h422v200h-371q-24 0 -45 -5.5t-36.5 -14.5t-25 -21.5t-10.5 -27.5v-111q0 -6 1 -9zM1662 542h50v-174h-50v-46h50v-158h-50v-46h50v-178h-1473q-83 0 -140 44q-27 21 -40 42q-3 2 -5.5 4t-4.5 4q-59 46 -59 111v292q0 66 59 110q57 45 140 45h1473
v-50zM858 158v66h794v138h-944v-204h-432q-27 0 -50 6.5t-40 17.5t-26.5 25.5t-9.5 30.5v112q2 33 38 55.5t89 22.5h1375v154h-1463q-79 0 -134 -43q-55 -42 -55 -102v-292q0 -60 55 -103q55 -42 134 -42h1463v158h-794z" />
    <glyph glyph-name="FL017Dh" unicode="&#x17d;" 
d="M437 822l35 -42l35 42h205l-50 -50h100l-172 -172h-132l-176 172h1l-51 50h205zM1004 368h-50q-1 -14 -3 -26.5t-5 -23.5h58q-2 -69 -41 -106.5t-110 -47.5h101v-50h50v-174h-964v50h-50v230q0 79 46.5 112.5t143.5 35.5h-140v50h-50v174h964v-50h50v-174zM472 764
l-40 48h-176l156 -152h124l152 152h-176zM944 582h-944v-154h944v154zM156 154v66h600q88 2 137 35.5t51 102.5h-754q-97 0 -143.5 -31t-46.5 -107v-220h944v154h-788z" />
    <glyph glyph-name="FL2018h" unicode="&#x2018;" horiz-adv-x="259" 
d="M0 582h150v-314q-64 35 -95 66q-31 30 -55 94v154zM-10 428q25 -71 58 -101q10 -12 27 -24q11 -15 23 -26q32 -33 112 -76v341h-50v50h-170v-164z" />
    <glyph glyph-name="FL2019h" unicode="&#x2019;" horiz-adv-x="259" 
d="M150 428q-24 -64 -55 -94q-32 -31 -95 -66v314h150v-154zM210 378v164h-50v50h-170v-341q14 8 26.5 15t23.5 14v-79q78 44 112 76q17 15 30.5 39t26.5 59z" />
    <glyph glyph-name="FL201Ch" unicode="&#x201c;" horiz-adv-x="481" 
d="M228 582h150v-314q-64 35 -95 66q-31 30 -55 94v154zM0 582h150v-314q-64 35 -95 66q-31 30 -55 94v154zM-10 428q25 -71 58 -101q10 -12 27 -24q11 -15 23 -26q32 -33 112 -76v341h-50v50h-170v-164zM218 428q25 -71 58 -101q10 -12 27 -24q11 -15 23 -26
q32 -33 112 -76v341h-50v50h-170v-164z" />
    <glyph glyph-name="FL201Dh" unicode="&#x201d;" horiz-adv-x="481" 
d="M150 428q-24 -64 -55 -94q-32 -31 -95 -66v314h150v-154zM378 428q-24 -64 -55 -94q-32 -31 -95 -66v314h150v-154zM438 378v164h-50v50h-170v-341q14 8 26.5 15t23.5 14v-79q78 44 112 76q17 15 30.5 39t26.5 59zM210 378v164h-50v50h-170v-341q14 8 26.5 15t23.5 14
v-79q78 44 112 76q17 15 30.5 39t26.5 59z" />
    <glyph glyph-name="FL2022h" unicode="&#x2022;" 
d="M-10 437q0 66 59 110q58 44 140 44h566q83 0 140 -45q26 -20 40 -43q4 -3 10 -7q59 -44 59 -110v-291q0 -65 -59 -111q-58 -44 -140 -44h-566q-83 0 -140 44q-27 21 -40 42q-3 2 -5.5 4t-4.5 4q-59 46 -59 111v292zM0 145q0 -60 55 -103q55 -42 134 -42h566q78 0 134 42
q55 43 55 103v291q0 60 -55 102q-55 43 -134 43h-566q-80 0 -134 -42q-55 -42 -55 -102v-292z" />
    <glyph glyph-name="FL2013h" unicode="&#x2013;" horiz-adv-x="589" 
d="M0 362h475v-138h-475v138zM-10 214h50v-50h495v158h-50v50h-495v-158z" />
    <glyph glyph-name="FL2014h" unicode="&#x2014;" horiz-adv-x="678" 
d="M0 362h571v-138h-571v138zM-10 214h50v-50h591v158h-50v50h-591v-158z" />
    <glyph glyph-name="FL02DCh" unicode="&#x2dc;" horiz-adv-x="577" 
d="M191 717l-48 -56h-136l135 152h113l49 -60l47 60h147l-128 -152h-135zM280 601h145l144 172h-92l42 50h-173l-39 -50h-7l-40 50h-122l-153 -172h94l-44 -50h163l43 50z" />
    <glyph glyph-name="FL2122h" unicode="&#x2122;" horiz-adv-x="1100" 
d="M615 525v-15h27l-10 15h-17zM532 560h38v15h-38v-15zM967 311v50h-50v61l-70 -111h-60l-32 50h-18l-72 113v-163h-95v50h-50v164h-188v-214h-95v50h-50v164h-147v50h-50v97h492v-50h38v50h118l33 -50h17l88 -131l114 181h122v-50h50v-311h-95zM1002 371v291h-107
l-127 -201l-135 201h-103v-77h76l136 -214h50l135 214v-214h75zM530 550v-179h75v179h-75zM472 585v77h-472v-77h197v-214h75v214h200z" />
    <glyph glyph-name="FL0161h" unicode="&#x161;" 
d="M437 822l35 -42l35 42h205l-50 -50h100l-172 -172h-132l-176 172h1l-51 50h205zM-10 164h200q-47 7 -80 25.5t-51 50.5q-66 38 -69 128h50v19q0 16 3 31h-53v19q0 66 59 110q57 45 140 45h765v-50h50v-174h-240q69 -2 112.5 -19t62.5 -56q65 -33 65 -123v-66
q0 -41 -15 -72t-41.5 -51.5t-63 -30.5t-79.5 -10h-765v50h-50v174zM472 764l-40 48h-176l156 -152h124l152 152h-176zM944 428v154h-755q-79 0 -134 -43q-55 -42 -55 -102v-9h944zM0 0h755q40 0 75 9.5t60 29t39.5 48t14.5 67.5v66q0 76 -46.5 107t-143.5 31h-754
q2 -69 51 -102.5t137 -35.5h600v-66h-788v-154z" />
    <glyph glyph-name="FL203Ah" unicode="&#x203a;" horiz-adv-x="255" 
d="M-2 253l42 35l-42 35v205l50 -51v1l172 -176v-132l-172 -172v100l-50 -50v205zM8 72l152 152v124l-152 156v-176l48 -40l-48 -40v-176z" />
    <glyph glyph-name="FL0153h" unicode="&#x153;" horiz-adv-x="1759" 
d="M211 179q28 -11 65 -11h422v200h-371q-24 0 -45 -5.5t-36.5 -14.5t-25 -21.5t-10.5 -27.5v-111q0 -6 1 -9zM1662 542h50v-174h-50v-46h50v-158h-50v-46h50v-178h-1473q-83 0 -140 44q-27 21 -40 42q-3 2 -5.5 4t-4.5 4q-59 46 -59 111v292q0 66 59 110q57 45 140 45h1473
v-50zM858 158v66h794v138h-944v-204h-432q-27 0 -50 6.5t-40 17.5t-26.5 25.5t-9.5 30.5v112q2 33 38 55.5t89 22.5h1375v154h-1463q-79 0 -134 -43q-55 -42 -55 -102v-292q0 -60 55 -103q55 -42 134 -42h1463v158h-794z" />
    <glyph glyph-name="FL017Eh" unicode="&#x17e;" 
d="M437 822l35 -42l35 42h205l-50 -50h100l-172 -172h-132l-176 172h1l-51 50h205zM1004 368h-57l3 -18l-87 -32h134l3 -18l-370 -136h324v-50h50v-174h-964v50h-50v170l556 208h-506v50h-50v174h964v-50h50v-174zM472 764l-40 48h-176l156 -152h124l152 152h-176zM944 582
h-944v-154h944v154zM390 154l554 204h-398l-546 -204v-154h944v154h-554z" />
    <glyph glyph-name="FL0178h" unicode="&#x178;" 
d="M467 594h-195v50h-50v166h195v-50h50v-166zM557 594v50h-50v166h195v-50h50v-166h-195zM160 592v-50h50v-170h568v220h176v-50h50v-230q0 -81 -49 -114.5t-151 -33.5h-200v-224h-170v50h-50v174h-186q-58 0 -107 33q-21 14 -35 40q-4 2 -7.5 4.5t-7.5 5.5q-51 34 -51 125
h50v46h-50v174h170zM692 654v146h-175v-146h175zM407 800h-175v-146h175v146zM0 582v-154h150v154h-150zM544 224h210q97 0 143.5 31t46.5 107v220h-156v-220h-788q0 -75 47 -107q46 -31 101 -31h246v-224h150v224z" />
    <glyph glyph-name="FL00A1h" unicode="&#xa1;" horiz-adv-x="259" 
d="M40 -60v50h-50v384h50v44h-50v174h170v-50h50v-174h-50v-44h50v-384h-170zM150 0v364h-150v-364h150zM0 428h150v154h-150v-154z" />
    <glyph glyph-name="FL00A2h" unicode="&#xa2;" 
d="M211 179q28 -11 65 -11h166v200h-115q-24 0 -45 -5.5t-36.5 -14.5t-25 -21.5t-10.5 -27.5v-111q0 -6 1 -9zM492 -135v50h-50v25h-203q-83 0 -140 44q-27 21 -40 42q-3 2 -5.5 4t-4.5 4q-59 46 -59 111v292q0 66 59 110q57 45 140 45h253v65h170v-50h50v-15h292v-50h50
v-174h-342v-200h292v-50h50v-178h-342v-75h-170zM452 158h-176q-27 0 -50 6.5t-40 17.5t-26.5 25.5t-9.5 30.5v112q2 33 38 55.5t89 22.5h175v-270zM602 -75v75h342v158h-342v270h342v154h-342v65h-150v-65h-263q-79 0 -134 -43q-55 -42 -55 -102v-292q0 -60 55 -103
q55 -42 134 -42h263v-75h150z" />
    <glyph glyph-name="FL00A3h" unicode="&#xa3;" horiz-adv-x="1092" 
d="M-8 150h208v21h-160v50h-50v158h210v58q0 66 59 110q57 43 130 43h378v-50h50v-172h-236v-39h50v-158h-180q16 -3 35 -3h467v-50h50v-176h-961v50h-50v158zM210 231v-91h-208v-138h941v156h-457q-51 0 -86 21.5t-40 51.5h211v138h-207q11 26 44 42.5t79 16.5h270v152
h-358h-10q-71 0 -124 -41q-55 -42 -55 -102v-68h-210v-138h210z" />
    <glyph glyph-name="FL00A4h" unicode="&#xa4;" 
d="M445 240q0 -8 1 -12q11 -4 27 -4q32 0 55.5 19t23.5 47q0 4 -2 12q-13 5 -27 5q-32 0 -55 -19.5t-23 -47.5zM469 479q48 0 88.5 -15.5t71.5 -43.5l146 172h190l-42 -50h92l-250 -298l250 -304h-190l-43 50h-7l-99 116q-31 -26 -71 -40.5t-86 -14.5q-96 0 -158 56
l-142 -167h-190l41 50h-91l250 304l-250 298h190l42 -50h8l97 -116q30 24 68.5 38.5t84.5 14.5zM385 290q0 32 25.5 54.5t62.5 22.5q18 0 34.5 -6t28.5 -16.5t19 -24.5t7 -30q0 -32 -26 -54t-63 -22t-62.5 22t-25.5 54zM469 469q-48 0 -88.5 -16.5t-69.5 -44.5l-147 174
h-164l242 -288l-242 -294h164l146 172q29 -29 70 -45t89 -16q49 0 91 17.5t71 46.5l149 -175h164l-242 294l242 288h-164l-150 -176q-29 29 -71 46t-90 17z" />
    <glyph glyph-name="FL00A5h" unicode="&#xa5;" 
d="M166 592v-50h50v-170h108v24h-50v158h401v-50h50v-132h53v220h176v-50h50v-230q0 -81 -48.5 -114.5t-151.5 -33.5h-250v-5h121v-50h50v-157h-121v-12h-170v11h-110v50h-50v158h110v5h-184q-50 0 -87.5 16t-56.5 53q-31 17 -48.5 48t-17.5 81v230h176zM665 406v138h-381
v-138h381zM394 11v-11h150v12h121v137h-121v11h-150v-11h-110v-138h110zM0 582v-220q0 -75 42 -106.5t108 -31.5h604q97 0 143.5 31t46.5 107v220h-156v-220h-632v220h-156z" />
    <glyph glyph-name="FL00A6h" unicode="&#xa6;" horiz-adv-x="259" 
d="M-1 -83v751h153v-751h-153zM212 -143v771h-50v50h-173v-771h50v-50h173z" />
    <glyph glyph-name="FL00A7h" unicode="&#xa7;" 
d="M-10 437q0 66 59 110q57 45 140 45h765v-50h50v-174h-240q70 -2 113.5 -19t62.5 -56q64 -33 64 -123v-66q0 -41 -15 -72t-42 -51.5t-63.5 -30.5t-79.5 -10h-764v50h-50v174h198q-48 7 -81 25t-50 50q-64 37 -67 119v79zM346 287q0 7 9.5 13t25.5 10.5t37.5 7t45.5 2.5
t45.5 -2.5t37.5 -7t25.5 -10.5t9.5 -13q0 -14 -34.5 -23t-83.5 -9t-83.5 9t-34.5 23zM0 358q2 -69 51 -102.5t137 -35.5h58q39 -20 95.5 -31t122.5 -11t122.5 11t95.5 31h106v-66h-788v-154h754q40 0 75 9.5t60.5 29t40 48t14.5 67.5v66q0 76 -46.5 107t-143.5 31h-65
q-38 21 -97 33.5t-128 12.5q-70 0 -128.5 -12.5t-96.5 -33.5h-89v70h794v154h-755q-79 0 -134 -43q-55 -42 -55 -102v-79z" />
    <glyph glyph-name="FL00A8h" unicode="&#xa8;" horiz-adv-x="548" 
d="M239 599h-195v50h-50v166h195v-50h50v-166zM329 599v50h-50v166h195v-50h50v-166h-195zM464 659v146h-175v-146h175zM179 805h-175v-146h175v146z" />
    <glyph glyph-name="FL00A9h" unicode="&#xa9;" horiz-adv-x="917" 
d="M275 134q-34 15 -42 46q-23 8 -37 25.5t-14 37.5v117q0 21 14 37q-9 -4 -20 -13q-16 -14 -25 -29.5t-9 -33.5v-144q0 -16 6 -31q25 -12 60 -12h67zM609 208h50v-74h161v-50h50l1 -121h-659q-68 0 -122 43q-18 16 -31 36q-5 3 -9.5 6.5t-9.5 7.5q-50 44 -50 105v278
q0 63 51 104q50 41 121 41h486q74 0 122 -42h-1q21 -17 32 -36q5 -3 9.5 -6.5t9.5 -7.5h-1q51 -41 51 -102v-205h-103v50h-50v137q-2 7 -3.5 13t-4.5 12q-14 7 -29.5 11t-32.5 4h-38v-34h50v-81h-299q-18 0 -30.5 -7t-13.5 -15v-17h293v-50zM310 248q-23 0 -38.5 10
t-15.5 22v46q1 12 16.5 21.5t37.5 9.5h289v61h-326q-35 0 -58 -16.5t-23 -41.5v-117q0 -24 23 -41.5t58 -17.5h326v64h-57h-232zM208 124q-56 0 -90 31q-36 31 -36 72v144q0 20 10 38t28 33q36 30 89 30h388q26 0 48.5 -8t39.5 -21.5t28 -31.5t14 -37v-129h83v195
q0 56 -47 94q-46 40 -115 40h-486q-67 0 -115 -39q-47 -38 -47 -96v-278q0 -56 47 -97q50 -41 115 -41h649l-1 101h-602z" />
    <glyph glyph-name="FL00AAh" unicode="&#xaa;" horiz-adv-x="466" 
d="M179 499l7 10h-84l57 84h70l32 -50h18l170 -264h-83l-36 50h-14l-32 45h-93l-69 -95h-83l32 50h-82l110 170h80zM104 489l-97 -150h60l69 95h118l67 -95h60l-157 244h-60l-43 -64h73l20 -30h-110z" />
    <glyph glyph-name="FL00ABh" unicode="&#xab;" horiz-adv-x="495" 
d="M400 72l-152 152v124l152 156v-176l-48 -40l48 -40v-176zM160 72l-152 152v124l152 156v-176l-48 -40l48 -40v-176zM220 203l-43 35l43 35v205l-50 -51v101l-172 -176v-132l222 -222v205zM460 203l-43 35l43 35v205l-50 -51v101l-172 -176v-132l222 -222v205z" />
    <glyph glyph-name="FL00ACh" unicode="&#xac;" horiz-adv-x="589" 
d="M484 322h50v-278h-170v50h-50v70h-274v50h-50v158h494v-50zM324 224v-120h150v258h-474v-138h324z" />
    <glyph glyph-name="FL00ADh" unicode="&#xad;" horiz-adv-x="502" 
d="M0 362h381v-137l-381 -1v138zM-10 214h50v-50l401 1v157h-50v50h-401v-158z" />
    <glyph glyph-name="FL00AEh" unicode="&#xae;" horiz-adv-x="917" 
d="M499 213h-155v-79h229l-29 36h-9zM264 134v36h-50v169h50v7h-50v59q-22 -8 -38 -21q-16 -14 -25 -29.5t-9 -33.5v-144q0 -16 6 -31q25 -12 60 -12h56zM589 412q21 -14 25 -39q23 -7 37.5 -23.5t14.5 -43.5v-27q0 -59 -66 -65l65 -80h155v-50h50l1 -121h-659
q-68 0 -122 43q-18 16 -31 36q-5 3 -9.5 6.5t-9.5 7.5q-50 44 -50 105v278q0 63 51 104q50 41 121 41h486q74 0 122 -42h-1q21 -17 32 -36q5 -3 9.5 -6.5t9.5 -7.5h-1q51 -41 51 -102v-205h-103v50h-50v137q-2 7 -3.5 13t-4.5 12q-14 7 -29.5 11t-32.5 4h-58zM540 180h66
l-76 93q38 0 57 13t19 43v27q0 31 -21.5 46.5t-54.5 15.5h-306v-62h320v-27h-320v-149h60v93h179zM208 124q-56 0 -90 31q-36 31 -36 72v144q0 20 10 38t28 33q36 30 89 30h388q26 0 48.5 -8t39.5 -21.5t28 -31.5t14 -37v-129h83v195q0 56 -47 94q-46 40 -115 40h-486
q-67 0 -115 -39q-47 -38 -47 -96v-278q0 -56 47 -97q50 -41 115 -41h649l-1 101h-602z" />
    <glyph glyph-name="FL00AFh" unicode="&#xaf;" horiz-adv-x="865" 
d="M-4 819h874v-117h-874v117zM-14 692h50v-50h894v137h-50v50h-894v-137z" />
    <glyph glyph-name="FL00B0h" unicode="&#xb0;" horiz-adv-x="569" 
d="M396 467q-3 15 -20.5 26.5t-44.5 11.5h-194q-26 0 -44 -11t-19 -28v-56q0 -17 18 -28.5t45 -11.5h197q23 0 43 12q19 12 19 29v56zM-1 509q0 30 27 51q28 22 67 22h283q39 0 67 -22q28 -21 28 -51v-146q0 -30 -28 -51q-27 -21 -67 -21h-283q-39 0 -67 21q-27 21 -27 51
v146zM-11 363q0 -35 31 -59q5 -5 10.5 -8t11.5 -6q8 -22 28 -36q30 -23 73 -23h283q42 0 73 23q32 23 32 59v146q0 36 -32 59q-5 4 -10.5 7.5t-11.5 5.5q-6 19 -28 37q-30 24 -73 24h-283q-43 0 -73 -24q-31 -24 -31 -59v-146zM386 411q0 -12 -14 -20q-19 -11 -38 -11h-197
h-3v36q1 13 15.5 21t37.5 8h194h5v-34z" />
    <glyph glyph-name="FL00B1h" unicode="&#xb1;" horiz-adv-x="633" 
d="M567 -56l-507 1v50h-50v157h204v33h-50v68h-124v50h-50v137h174v118h195v-50h50v-68h124v-50h50v-137h-174v-101h108v-50h50v-158zM507 142h-487v-137l487 -1v138zM349 430v118h-175v-118h-174v-117h174v-118h175v118h174v117h-174z" />
    <glyph glyph-name="FL00B2h" unicode="&#xb2;" horiz-adv-x="559" 
d="M0 581h377q42 0 67 -22q28 -21 28 -51v-4h-472v77zM472 290h-472v110q0 38 23.5 53.5t71.5 15.5h377q-2 -35 -25.5 -51.5t-68.5 -17.5h-300v-33h394v-77zM-10 494h50v-22q-26 -8 -38 -25t-12 -47v-120h50v-50h492v97h-50v22q47 20 51 80h-65q5 7 8 15h56v14q0 36 -32 59
l1 -1q-10 8 -23 15q-6 18 -28 36q-29 24 -73 24h-387v-97z" />
    <glyph glyph-name="FL00B3h" unicode="&#xb3;" horiz-adv-x="573" 
d="M-6 378h50v13h-50v89h50v13h-50v97h387q44 0 73 -24q22 -18 28 -36q13 -7 23 -15l-1 1q32 -23 32 -59v-14h-50v-13h50v-119q0 -36 -32 -59q-31 -23 -73 -23h-387v50h-50v99zM476 507q0 30 -28 51q-25 22 -67 22h-377v-77h472v4zM4 289h377q40 0 67 21q28 21 28 51v109
h-472v-69h397v-33h-397v-79z" />
    <glyph glyph-name="FL00B4h" unicode="&#xb4;" horiz-adv-x="317" 
d="M244 602h-197l22 50h-72l69 156h197l-22 -50h72zM248 798h-176l-60 -136h176z" />
    <glyph glyph-name="FL00B5h" unicode="&#xb5;" 
d="M785 592h169v-50h50v-447q0 -65 -59 -111q-58 -44 -140 -44h-587h-8v-89h-170v50h-50v691h170v-50h50v-354q0 -6 1 -9q28 -11 65 -11h394q49 0 81 22q34 22 34 50v352zM795 240q0 -33 -39 -58q-38 -24 -86 -24h-394q-27 0 -50 6.5t-40 17.5t-26.5 25.5t-9.5 30.5v344
h-150v-671h150v91q5 -1 9 -1.5t9 -0.5h21h566q78 0 134 42q55 43 55 103v437h-149v-342z" />
    <glyph glyph-name="FL00B6h" unicode="&#xb6;" 
d="M944 363v-363h-150v363h150zM352 0h-164v224q-94 0 -141 31t-47 107v66q0 38 14 67t39 48t59 28.5t74 9.5h758v-153h-592v-64v-364zM412 -60v428h372v-378h50v-50h170v383h-50v45h50v173h-50v50h-768q-42 0 -78 -10t-62.5 -30.5t-41 -51t-14.5 -71.5v-66q0 -47 16 -77
t48 -47q29 -59 124 -71v-177h50v-50h184z" />
    <glyph glyph-name="FL00B7h" unicode="&#xb7;" horiz-adv-x="283" 
d="M0 218v146h175v-146h-175zM235 158v166h-50v50h-195v-166h50v-50h195z" />
    <glyph glyph-name="FL00B8h" unicode="&#xb8;" horiz-adv-x="317" 
d="M4 -111v129h149v-267h-473v138h324zM-330 -101v-158h50v-50h493v287h-50v50h-169v-129h-324z" />
    <glyph glyph-name="FL00B9h" unicode="&#xb9;" horiz-adv-x="160" 
d="M0 280v300h76l-1 -300h-75zM135 220l1 320h-50v50h-96v-320h50v-50h95z" />
    <glyph glyph-name="FL00BAh" unicode="&#xba;" horiz-adv-x="569" 
d="M396 467q-3 15 -20.5 26.5t-44.5 11.5h-194q-26 0 -44 -11t-19 -28v-56q0 -17 18 -28.5t45 -11.5h197q23 0 43 12q19 12 19 29v56zM-1 509q0 30 27 51q28 22 67 22h283q39 0 67 -22q28 -21 28 -51v-146q0 -30 -28 -51q-27 -21 -67 -21h-283q-39 0 -67 21q-27 21 -27 51
v146zM-11 363q0 -35 31 -59q5 -5 10.5 -8t11.5 -6q8 -22 28 -36q30 -23 73 -23h283q42 0 73 23q32 23 32 59v146q0 36 -32 59q-5 4 -10.5 7.5t-11.5 5.5q-6 19 -28 37q-30 24 -73 24h-283q-43 0 -73 -24q-31 -24 -31 -59v-146zM386 411q0 -12 -14 -20q-19 -11 -38 -11h-197
h-3v36q1 13 15.5 21t37.5 8h194h5v-34z" />
    <glyph glyph-name="FL00BBh" unicode="&#xbb;" horiz-adv-x="495" 
d="M238 253l42 35l-42 35v205l50 -51v1l172 -176v-132l-172 -172v100l-50 -50v205zM-2 253l42 35l-42 35v205l50 -51v1l172 -176v-132l-172 -172v100l-50 -50v205zM8 72l152 152v124l-152 156v-176l48 -40l-48 -40v-176zM248 72l152 152v124l-152 156v-176l48 -40l-48 -40
v-176z" />
    <glyph glyph-name="FL00BCh" unicode="&#xbc;" 
d="M1004 368h-50v-46h50v-382h-170v50h-50v174h-544q-75 0 -121 17t-65 57q-32 17 -48 47t-16 77v66q0 42 15 72.5t41.5 51t63 30.5t79.5 10h765v-50h50v-174zM944 582h-755q-41 0 -75.5 -9.5t-59.5 -28.5t-39.5 -48t-14.5 -68v-66q0 -76 46.5 -107t143.5 -31h604v-224h150
v362h-788v66h788v154z" />
    <glyph glyph-name="FL00BDh" unicode="&#xbd;" 
d="M-10 164h50v46h-50v382h170v-50h50v-174h744v-50h50v-158h-50v-46h50v-174h-765q-83 0 -140 45q-26 19 -41 43q-6 4 -9 7q-59 44 -59 110v19zM0 582v-362h944v138h-794v224h-150zM0 145q0 -60 55 -102q55 -43 134 -43h755v154h-944v-9z" />
    <glyph glyph-name="FL00BEh" unicode="&#xbe;" 
d="M1004 364h-678q-50 0 -83 -20.5t-33 -49.5v-354h-170v50h-50v447q0 66 59 110q57 45 140 45h765v-50h50v-178zM944 582h-755q-79 0 -134 -43q-55 -42 -55 -102v-437h150v344q0 16 9.5 30.5t26.5 25.5t40 17.5t50 6.5h668v158z" />
    <glyph glyph-name="FL00BFh" unicode="&#xbf;" 
d="M784 590h170v-50h50v-174h-50v-50h50v-158h-50v-46h50v-173h-765q-61 0 -108 19.5t-71 60.5q-32 20 -51 52.5t-19 80.5v66q0 81 48.5 114.5t151.5 33.5h644v50h-50v174zM794 426h150v154h-150v-154zM156 218h788v138h-754q-97 0 -143.5 -31t-46.5 -107v-66
q0 -39 14.5 -68t39.5 -47.5t59.5 -28t75.5 -9.5h755v153h-788v66z" />
    <glyph glyph-name="FL00C0h" unicode="&#xc0;" 
d="M416 600l-22 50h-28l-69 156h197l22 -50h28l69 -156h-197zM504 366l-1 2h-184l35 50h-85l122 174h162l34 -50h16l410 -602h-174l-38 50h-12l-132 174h-278l-174 -224h-174l34 50h-84l258 376h265zM548 660l-60 136h-176l60 -136h176zM244 356l-244 -356h150l174 224h300
l170 -224h150l-396 582h-152l-108 -154h183l53 -72h-280z" />
    <glyph glyph-name="FL00C1h" unicode="&#xc1;" 
d="M624 600h-197l22 50h-72l69 156h197l-22 -50h72zM504 366l-1 2h-184l35 50h-85l122 174h162l34 -50h16l410 -602h-174l-38 50h-12l-132 174h-278l-174 -224h-174l34 50h-84l258 376h265zM628 796h-176l-60 -136h176zM244 356l-244 -356h150l174 224h300l170 -224h150
l-396 582h-152l-108 -154h183l53 -72h-280z" />
    <glyph glyph-name="FL00C2h" unicode="&#xc2;" 
d="M557 600l-35 42l-35 -42h-205l51 50h-101l176 172h132l222 -222h-205zM504 366l-1 2h-184l35 50h-85l122 174h162l34 -50h16l410 -602h-174l-38 50h-12l-132 174h-278l-174 -224h-174l34 50h-84l258 376h265zM688 660l-152 152h-124l-156 -152h176l40 48l40 -48h176z
M244 356l-244 -356h150l174 224h300l170 -224h150l-396 582h-152l-108 -154h183l53 -72h-280z" />
    <glyph glyph-name="FL00C3h" unicode="&#xc3;" 
d="M501 600l-39 50l-43 -50h-163l44 50h-94l153 172h122l40 -50h7l39 50h173l-42 -50h92l-144 -172h-145zM504 366l-1 2h-184l35 50h-85l122 174h162l34 -50h16l410 -602h-174l-38 50h-12l-132 174h-278l-174 -224h-174l34 50h-84l258 376h265zM591 660l128 152h-147
l-47 -60l-49 60h-113l-135 -152h136l48 56l44 -56h135zM244 356l-244 -356h150l174 224h300l170 -224h150l-396 582h-152l-108 -154h183l53 -72h-280z" />
    <glyph glyph-name="FL00C4h" unicode="&#xc4;" 
d="M479 594h-195v50h-50v166h195v-50h50v-166zM569 594v50h-50v166h195v-50h50v-166h-195zM504 366l-1 2h-184l35 50h-85l122 174h162l34 -50h16l410 -602h-174l-38 50h-12l-132 174h-278l-174 -224h-174l34 50h-84l258 376h265zM704 654v146h-175v-146h175zM419 800h-175
v-146h175v146zM244 356l-244 -356h150l174 224h300l170 -224h150l-396 582h-152l-108 -154h183l53 -72h-280z" />
    <glyph glyph-name="FL00C5h" unicode="&#xc5;" 
d="M623 594h-195v50h-50v166h195v-50h50v-166zM504 366l-1 2h-184l35 50h-85l122 174h162l34 -50h16l410 -602h-174l-38 50h-12l-132 174h-278l-174 -224h-174l34 50h-84l258 376h265zM563 800h-175v-146h175v146zM244 356l-244 -356h150l174 224h300l170 -224h150l-396 582
h-152l-108 -154h183l53 -72h-280z" />
    <glyph glyph-name="FL00C6h" unicode="&#xc6;" horiz-adv-x="1819" 
d="M1679 368v-46h50v-158h-50v-46h50v-178h-890l-38 50h-12l-132 174h-278l-174 -224h-174l34 50h-84l258 376h265l-1 2h-184l35 50h-85l122 174h162l34 -50h16l116 -170h46v15q0 16 3 31h-53v19q0 66 59 110q57 45 140 45h765v-50h50v-174h-50zM1669 428v154h-755
q-79 0 -134 -43q-55 -42 -55 -102v-9h944zM875 158v66h794v138h-944v-40l-177 260h-152l-108 -154h183l53 -72h-280l-244 -356h150l174 224h300l170 -224h875v158h-794z" />
    <glyph glyph-name="FL00C7h" unicode="&#xc7;" 
d="M108 -105h324v45h-193q-83 0 -140 44q-27 21 -40 42q-3 2 -5.5 4t-4.5 4q-59 46 -59 111v292q0 66 59 110q57 45 140 45h765v-50h50v-174h-677q-24 0 -45 -5.5t-36.5 -14.5t-25 -21.5t-10.5 -27.5v-111q0 -6 1 -9q28 -11 65 -11h678v-50h50v-178h-353v-253h-493v50h-50
v158zM118 -253h473v253h353v158h-668q-27 0 -50 6.5t-40 17.5t-26.5 25.5t-9.5 30.5v112q2 33 38 55.5t89 22.5h667v154h-755q-79 0 -134 -43q-55 -42 -55 -102v-292q0 -60 55 -103q55 -42 134 -42h253v-115h-324v-138z" />
    <glyph glyph-name="FL00C8h" unicode="&#xc8;" 
d="M456 600l-22 50h-28l-69 156h197l22 -50h28l69 -156h-197zM954 541l50 1v-174h-50v-46h50v-158h-50v-46h50v-178h-765q-83 0 -140 44q-27 21 -40 42q-3 2 -5.5 4t-4.5 4q-59 46 -59 111v227h50v15q0 16 3 31h-53v19q0 66 59 110q57 45 140 45l566 -1l199 1v-51zM588 660
l-60 136h-176l60 -136h176zM224 428h53h667v154l-189 -1l-566 1q-79 0 -134 -43q-55 -42 -55 -102v-9h224zM670 158h-394h-126v66h794v138h-944v-217q0 -60 55 -103q55 -42 134 -42h566h189v158h-132h-142z" />
    <glyph glyph-name="FL00C9h" unicode="&#xc9;" 
d="M648 600h-197l22 50h-72l69 156h197l-22 -50h72zM954 368v-46h50v-158h-50v-46h50v-178h-765q-83 0 -140 44q-27 21 -40 42q-3 2 -5.5 4t-4.5 4q-59 46 -59 111v227h50v15q0 16 3 31h-53v19q0 66 59 110q57 45 140 45h765v-50h50v-174h-50zM652 796h-176l-60 -136h176z
M944 428v154h-755q-79 0 -134 -43q-55 -42 -55 -102v-9h944zM150 224h794v138h-944v-217q0 -60 55 -103q55 -42 134 -42h755v158h-794v66z" />
    <glyph glyph-name="FL00CAh" unicode="&#xca;" 
d="M569 601l-35 42l-35 -42h-205l51 50h-101l176 172h132l222 -222h-205zM954 368v-46h50v-158h-50v-46h50v-178h-765q-83 0 -140 44q-27 21 -40 42q-3 2 -5.5 4t-4.5 4q-59 46 -59 111v227h50v15q0 16 3 31h-53v19q0 66 59 110q57 45 140 45h765v-50h50v-174h-50zM700 661
l-152 152h-124l-156 -152h176l40 48l40 -48h176zM944 428v154h-755q-79 0 -134 -43q-55 -42 -55 -102v-9h944zM150 158v66h794v138h-944v-217q0 -60 55 -103q55 -42 134 -42h755v158h-668h-126z" />
    <glyph glyph-name="FL00CBh" unicode="&#xcb;" 
d="M507 593h-195v50h-50v166h195v-50h50v-166zM593 593v50h-50v166h195v-50h50v-166h-195zM954 368v-46h50v-158h-50v-46h50v-178h-765q-83 0 -140 44q-27 21 -40 42q-3 2 -5.5 4t-4.5 4q-59 46 -59 111v227h50v15q0 16 3 31h-53v19q0 66 59 110q57 45 140 45h765v-50h50
v-174h-50zM728 653v146h-175v-146h175zM447 799h-175v-146h175v146zM944 428v154h-755q-79 0 -134 -43q-55 -42 -55 -102v-9h944zM150 224h794v138h-944v-217q0 -60 55 -103q55 -42 134 -42h755v158h-794v66z" />
    <glyph glyph-name="FL00CCh" unicode="&#xcc;" horiz-adv-x="259" 
d="M24 600l-22 50h-28l-69 156h197l22 -50h28l69 -156h-197zM210 -60h-170v50h-50v602h170v-50h50v-602zM156 660l-60 136h-176l60 -136h176zM150 582h-150v-582h150v582z" />
    <glyph glyph-name="FL00CDh" unicode="&#xcd;" horiz-adv-x="259" 
d="M216 600h-197l22 50h-72l69 156h197l-22 -50h72zM210 -60h-170v50h-50v602h170v-50h50v-602zM220 796h-176l-60 -136h176zM150 582h-150v-582h150v582z" />
    <glyph glyph-name="FL00CEh" unicode="&#xce;" horiz-adv-x="283" 
d="M197 600l-35 42l-35 -42h-205l51 50h-101l176 172h132l222 -222h-205zM246 -60h-170v50h-50v602h170v-50h50v-602zM328 660l-152 152h-124l-156 -152h176l40 48l40 -48h176zM186 582h-150v-582h150v582z" />
    <glyph glyph-name="FL00CFh" unicode="&#xcf;" horiz-adv-x="279" 
d="M391 594h-195v50h-50v166h195v-50h50v-166zM-80 594v50h-50v166h195v-50h50v-166h-195zM238 -60h-170v50h-50v602h170v-50h50v-602zM55 654v146h-175v-146h175zM331 800h-175v-146h175v146zM178 582h-150v-582h150v582z" />
    <glyph glyph-name="FL00D0h" unicode="&#xd0;" horiz-adv-x="1219" 
d="M953 350q-1 1 -1 4q-30 14 -69 14h-396v-44h50v-156h301q49 0 81 22q34 22 34 50v110zM1063 546q26 -20 41 -44l9 -6q59 -44 59 -110v-291q0 -65 -59 -111q-58 -44 -140 -44h-765v50h-50v176h-116v50h-50v158h216v44h-50v174h765q80 0 140 -46zM168 226v-226h755
q78 0 134 42q55 43 55 103v291q0 60 -55 102q-56 44 -134 44h-755v-154h665q54 0 88.5 -23t41.5 -53v-112q0 -33 -39 -58q-38 -24 -86 -24h-520v68h159v138h-475v-138h166z" />
    <glyph glyph-name="FL00D1h" unicode="&#xd1;" 
d="M412 716l-48 -56h-136l135 152h113l49 -60l47 60h147l-128 -152h-135zM150 0h-150v358h150v-358zM794 158v424h150v-582h-150l-642 428h-152v154h154zM210 318h-50v50h39l642 -428h163v602h-50v50h-170v-416l-627 416h-167v-174h50v-50h-50v-378h50v-50h170v378zM501 600
h145l144 172h-92l42 50h-173l-39 -50h-7l-40 50h-122l-153 -172h94l-44 -50h163l43 50z" />
    <glyph glyph-name="FL00D2h" unicode="&#xd2;" 
d="M444 600l-22 50h-28l-69 156h197l22 -50h28l69 -156h-197zM544 170l126 -2q49 0 81 22q34 22 34 50v110q-1 1 -1 4q-30 14 -69 14h-388q-24 0 -45 -5.5t-36.5 -14.5t-25 -21.5t-10.5 -27.5v-111q0 -5 1 -8q28 -10 59 -10h274zM-10 437q0 66 59 110q58 44 135 44h571
q83 0 140 -45q26 -20 40 -43q4 -3 10 -7q59 -44 59 -110v-291q0 -65 -59 -111q-58 -44 -140 -44h-566q-83 0 -140 44q-27 21 -40 42q-3 2 -5.5 4t-4.5 4q-59 46 -59 111v292zM576 660l-60 136h-176l60 -136h176zM270 160q-26 0 -48 6t-38 16.5t-25 25t-9 30.5v112
q2 33 38 55.5t89 22.5h388q54 0 88.5 -23t41.5 -53v-112q0 -33 -39 -58q-38 -24 -86 -24l-126 2h-274zM0 145q0 -60 55 -103q55 -42 134 -42h566q78 0 134 42q55 43 55 103v291q0 60 -55 102q-55 43 -134 43h-571q-75 0 -129 -42q-55 -42 -55 -102v-292z" />
    <glyph glyph-name="FL00D3h" unicode="&#xd3;" 
d="M604 600h-197l22 50h-72l69 156h197l-22 -50h72zM670 168q49 0 81 22q34 22 34 50v110q-1 1 -1 4q-30 14 -69 14h-388q-24 0 -45 -5.5t-36.5 -14.5t-25 -21.5t-10.5 -27.5v-111q0 -6 1 -9q28 -11 65 -11h394zM-10 437q0 66 59 110q58 44 140 44h566q83 0 140 -45
q26 -20 40 -43q4 -3 10 -7q59 -44 59 -110v-291q0 -65 -59 -111q-58 -44 -140 -44h-566q-83 0 -140 44q-27 21 -40 42q-3 2 -5.5 4t-4.5 4q-59 46 -59 111v292zM608 796h-176l-60 -136h176zM276 158q-27 0 -50 6.5t-40 17.5t-26.5 25.5t-9.5 30.5v112q2 33 38 55.5t89 22.5
h388q54 0 88.5 -23t41.5 -53v-112q0 -33 -39 -58q-38 -24 -86 -24h-394zM0 145q0 -60 55 -103q55 -42 134 -42h566q78 0 134 42q55 43 55 103v291q0 60 -55 102q-55 43 -134 43h-566q-80 0 -134 -42q-55 -42 -55 -102v-292z" />
    <glyph glyph-name="FL00D4h" unicode="&#xd4;" 
d="M557 600l-35 42l-35 -42h-205l51 50h-101l176 172h132l222 -222h-205zM785 350q-1 1 -1 4q-30 14 -69 14h-388q-24 0 -45 -5.5t-36.5 -14.5t-25 -21.5t-10.5 -27.5v-111q0 -6 1 -9q28 -11 65 -11h389q52 0 86 22t34 50v110zM-10 437q0 66 59 110q58 44 135 44h571
q83 0 140 -45q26 -20 40 -43q4 -3 10 -7q59 -44 59 -110v-291q0 -65 -59 -111q-58 -44 -140 -44h-566q-83 0 -140 44q-27 21 -40 42q-3 2 -5.5 4t-4.5 4q-59 46 -59 111v292zM688 660l-152 152h-124l-156 -152h176l40 48l40 -48h176zM795 240q0 -33 -39 -58q-38 -24 -91 -24
h-389q-27 0 -50 6.5t-40 17.5t-26.5 25.5t-9.5 30.5v112q2 33 38 55.5t89 22.5h388q54 0 88.5 -23t41.5 -53v-112zM0 145q0 -60 55 -103q55 -42 134 -42h566q78 0 134 42q55 43 55 103v291q0 60 -55 102q-55 43 -134 43h-571q-75 0 -129 -42q-55 -42 -55 -102v-292z" />
    <glyph glyph-name="FL00D5h" unicode="&#xd5;" 
d="M501 600l-39 50l-43 -50h-163l44 50h-94l153 172h122l40 -50h7l39 50h173l-42 -50h92l-144 -172h-145zM670 168q49 0 81 22q34 22 34 50v110q-1 1 -1 4q-30 14 -69 14h-388q-24 0 -45 -5.5t-36.5 -14.5t-25 -21.5t-10.5 -27.5v-111q0 -6 1 -9q28 -11 65 -11h394zM-10 437
q0 66 59 110q58 44 135 44h571q83 0 140 -45q26 -20 40 -43q4 -3 10 -7q59 -44 59 -110v-291q0 -65 -59 -111q-58 -44 -140 -44h-566q-83 0 -140 44q-27 21 -40 42q-3 2 -5.5 4t-4.5 4q-59 46 -59 111v292zM591 660l128 152h-147l-47 -60l-49 60h-113l-135 -152h136l48 56
l44 -56h135zM276 158q-27 0 -50 6.5t-40 17.5t-26.5 25.5t-9.5 30.5v112q2 33 38 55.5t89 22.5h388q54 0 88.5 -23t41.5 -53v-112q0 -33 -39 -58q-38 -24 -86 -24h-394zM0 145q0 -60 55 -103q55 -42 134 -42h566q78 0 134 42q55 43 55 103v291q0 60 -55 102q-55 43 -134 43
h-571q-75 0 -129 -42q-55 -42 -55 -102v-292z" />
    <glyph glyph-name="FL00D6h" unicode="&#xd6;" 
d="M479 594h-195v50h-50v166h195v-50h50v-166zM569 594v50h-50v166h195v-50h50v-166h-195zM785 350q-1 1 -1 4q-30 14 -69 14h-388q-24 0 -45 -5.5t-36.5 -14.5t-25 -21.5t-10.5 -27.5v-111q0 -6 1 -9q28 -11 65 -11h389q52 0 86 22t34 50v110zM-10 437q0 66 59 110
q58 44 140 44h566q83 0 140 -45q26 -20 40 -43q4 -3 10 -7q59 -44 59 -110v-291q0 -65 -59 -111q-58 -44 -140 -44h-566q-83 0 -140 44q-27 21 -40 42q-3 2 -5.5 4t-4.5 4q-59 46 -59 111v292zM704 654v146h-175v-146h175zM419 800h-175v-146h175v146zM795 240
q0 -33 -39 -58q-38 -24 -91 -24h-389q-27 0 -50 6.5t-40 17.5t-26.5 25.5t-9.5 30.5v112q2 33 38 55.5t89 22.5h388q54 0 88.5 -23t41.5 -53v-112zM0 145q0 -60 55 -103q55 -42 134 -42h566q78 0 134 42q55 43 55 103v291q0 60 -55 102q-55 43 -134 43h-566q-80 0 -134 -42
q-55 -42 -55 -102v-292z" />
    <glyph glyph-name="FL00D7h" unicode="&#xd7;" horiz-adv-x="658" 
d="M398 60h-102l-105 -120h-168l43 50h-93l160 186l-160 183h168l44 -50h6l61 -70h101l107 120h167l-44 -50h94l-160 -183l160 -186h-167l-45 50h-5zM464 0h140l-151 176l151 173h-140l-106 -120h-117l-105 120h-140l151 -173l-151 -176h140l105 120h117z" />
    <glyph glyph-name="FL00D8h" unicode="&#xd8;" 
d="M211 179q28 -11 65 -11h20l120 200h-89q-24 0 -45 -5.5t-36.5 -14.5t-25 -21.5t-10.5 -27.5v-111q0 -6 1 -9zM785 350q-1 1 -1 4q-30 14 -69 14h-20l-120 -200h95q49 0 81 22q34 22 34 50v110zM240 -62l1 2h-2q-83 0 -140 44q-27 21 -40 42q-3 2 -5.5 4t-4.5 4
q-59 46 -59 111v292q0 66 59 110q57 45 140 45h566q80 0 140 -46q26 -20 41 -44l9 -6q59 -44 59 -110v-291q0 -65 -59 -111q-57 -43 -140 -46h-565zM150 350q2 33 38 55.5t89 22.5h187l-162 -270h-26q-27 0 -50 6.5t-40 17.5t-26.5 25.5t-9.5 30.5v112zM795 240
q0 -33 -39 -58q-38 -24 -86 -24h-193l162 270h26q54 0 88.5 -23t41.5 -53v-112zM755 -2q79 3 134 44q55 43 55 103v291q0 60 -55 102q-56 44 -134 44h-566q-79 0 -134 -43q-55 -42 -55 -102v-292q0 -60 55 -103q55 -42 134 -42h18l-1 -2h549z" />
    <glyph glyph-name="FL00D9h" unicode="&#xd9;" 
d="M444 600l-22 50h-28l-69 156h197l22 -50h28l69 -156h-197zM784 592h170v-50h50v-447q0 -65 -59 -111q-58 -44 -140 -44h-566q-83 0 -140 44q-27 21 -40 42q-3 2 -5.5 4t-4.5 4q-59 46 -59 111v447h170v-50h50v-354q0 -6 1 -9q28 -11 65 -11h394q49 0 81 22q34 22 34 50z
M576 660l-60 136h-176l60 -136h176zM795 240q0 -33 -39 -58q-38 -24 -86 -24h-394q-27 0 -50 6.5t-40 17.5t-26.5 25.5t-9.5 30.5v344h-150v-437q0 -60 55 -103q55 -42 134 -42h566q78 0 134 42q55 43 55 103v437h-150z" />
    <glyph glyph-name="FL00DAh" unicode="&#xda;" 
d="M604 600h-197l22 50h-72l69 156h197l-22 -50h72zM784 592h170v-50h50v-447q0 -65 -59 -111q-58 -44 -140 -44h-566q-83 0 -140 44q-27 21 -40 42q-3 2 -5.5 4t-4.5 4q-59 46 -59 111v447h170v-50h50v-354q0 -6 1 -9q28 -11 65 -11h394q49 0 81 22q34 22 34 50zM608 796
h-176l-60 -136h176zM795 240q0 -33 -39 -58q-38 -24 -86 -24h-394q-27 0 -50 6.5t-40 17.5t-26.5 25.5t-9.5 30.5v344h-150v-437q0 -60 55 -103q55 -42 134 -42h566q78 0 134 42q55 43 55 103v437h-150z" />
    <glyph glyph-name="FL00DBh" unicode="&#xdb;" 
d="M557 600l-35 42l-35 -42h-205l51 50h-101l176 172h132l222 -222h-205zM784 592h170v-50h50v-447q0 -65 -59 -111q-58 -44 -140 -44h-566q-83 0 -140 44q-27 21 -40 42q-3 2 -5.5 4t-4.5 4q-59 46 -59 111v447h170v-50h50v-354q0 -6 1 -9q28 -11 65 -11h394q49 0 81 22
q34 22 34 50zM688 660l-152 152h-124l-156 -152h176l40 48l40 -48h176zM795 240q0 -33 -39 -58q-38 -24 -86 -24h-394q-27 0 -50 6.5t-40 17.5t-26.5 25.5t-9.5 30.5v344h-150v-437q0 -60 55 -103q55 -42 134 -42h566q78 0 134 42q55 43 55 103v437h-150z" />
    <glyph glyph-name="FL00DCh" unicode="&#xdc;" 
d="M475 594h-195v50h-50v166h195v-50h50v-166zM565 594v50h-50v166h195v-50h50v-166h-195zM784 592h170v-50h50v-447q0 -65 -59 -111q-58 -44 -140 -44h-566q-83 0 -140 44q-27 21 -40 42q-3 2 -5.5 4t-4.5 4q-59 46 -59 111v447h170v-50h50v-354q0 -6 1 -9q28 -11 65 -11
h394q49 0 81 22q34 22 34 50zM700 654v146h-175v-146h175zM415 800h-175v-146h175v146zM795 240q0 -33 -39 -58q-38 -24 -86 -24h-394q-27 0 -50 6.5t-40 17.5t-26.5 25.5t-9.5 30.5v344h-150v-437q0 -60 55 -103q55 -42 134 -42h566q78 0 134 42q55 43 55 103v437h-150z
" />
    <glyph glyph-name="FL00DDh" unicode="&#xdd;" 
d="M604 600h-197l22 50h-72l69 156h197l-22 -50h72zM160 592v-50h50v-170h568v220h176v-50h50v-230q0 -81 -49 -114.5t-151 -33.5h-200v-224h-170v50h-50v174h-186q-58 0 -107 33q-21 14 -35 40q-4 2 -7.5 4.5t-7.5 5.5q-51 34 -51 125h50v46h-50v174h170zM608 796h-176
l-60 -136h176zM0 582v-154h150v154h-150zM544 224h210q97 0 143.5 31t46.5 107v220h-156v-220h-788q0 -75 47 -107q46 -31 101 -31h246v-224h150v224z" />
    <glyph glyph-name="FL00DEh" unicode="&#xde;" 
d="M944 0h-755q-41 0 -75.5 9.5t-59.5 28.5t-39.5 48t-14.5 68v66q0 76 46.5 107t143.5 31h604v224h150v-362h-788v-66h788v-154zM1004 114h-50v46h50v382h-50v50h-170v-224h-594q-103 0 -151.5 -33.5t-48.5 -114.5v-66q0 -48 19 -81t52 -53q24 -41 70.5 -60.5t107.5 -19.5
h765v174z" />
    <glyph glyph-name="FL00DFh" unicode="&#xdf;" 
d="M32 374l41 44h-96l161 173h620q60 0 106 -20t69 -61q33 -20 52 -52.5t19 -79.5v-67q-3 -45 -55 -70l3 -6q49 -18 52 -65v-66q0 -41 -15 -72t-42 -51.5t-63.5 -30.5t-79.5 -10h-532v50h-50v174h50v50h-50v154h-64v-44h50v-540h-168v50h-50v540h42zM0 364v-520h148v520
h-148zM788 154h-556v-154h522q40 0 75 9.5t60.5 29t40 48t14.5 67.5v66q-4 58 -98 66q94 18 98 76v66q0 38 -14 67t-39 48t-59 28.5t-74 9.5h-616l-142 -153h788v-66h-556v-138h556v-70z" />
    <glyph glyph-name="FL00E0h" unicode="&#xe0;" 
d="M416 600l-22 50h-28l-69 156h197l22 -50h28l69 -156h-197zM504 366l-1 2h-184l35 50h-85l122 174h162l34 -50h16l410 -602h-174l-38 50h-12l-132 174h-278l-174 -224h-174l34 50h-84l258 376h265zM548 660l-60 136h-176l60 -136h176zM244 356l-244 -356h150l174 224h300
l170 -224h150l-396 582h-152l-108 -154h183l53 -72h-280z" />
    <glyph glyph-name="FL00E1h" unicode="&#xe1;" 
d="M624 600h-197l22 50h-72l69 156h197l-22 -50h72zM504 366l-1 2h-184l35 50h-85l122 174h162l34 -50h16l410 -602h-174l-38 50h-12l-132 174h-278l-174 -224h-174l34 50h-84l258 376h265zM628 796h-176l-60 -136h176zM244 356l-244 -356h150l174 224h300l170 -224h150
l-396 582h-152l-108 -154h183l53 -72h-280z" />
    <glyph glyph-name="FL00E2h" unicode="&#xe2;" 
d="M557 600l-35 42l-35 -42h-205l51 50h-101l176 172h132l222 -222h-205zM504 366l-1 2h-184l35 50h-85l122 174h162l34 -50h16l410 -602h-174l-38 50h-12l-132 174h-278l-174 -224h-174l34 50h-84l258 376h265zM688 660l-152 152h-124l-156 -152h176l40 48l40 -48h176z
M244 356l-244 -356h150l174 224h300l170 -224h150l-396 582h-152l-108 -154h183l53 -72h-280z" />
    <glyph glyph-name="FL00E3h" unicode="&#xe3;" 
d="M501 600l-39 50l-43 -50h-163l44 50h-94l153 172h122l40 -50h7l39 50h173l-42 -50h92l-144 -172h-145zM504 366l-1 2h-184l35 50h-85l122 174h162l34 -50h16l410 -602h-174l-38 50h-12l-132 174h-278l-174 -224h-174l34 50h-84l258 376h265zM591 660l128 152h-147
l-47 -60l-49 60h-113l-135 -152h136l48 56l44 -56h135zM244 356l-244 -356h150l174 224h300l170 -224h150l-396 582h-152l-108 -154h183l53 -72h-280z" />
    <glyph glyph-name="FL00E4h" unicode="&#xe4;" 
d="M479 594h-195v50h-50v166h195v-50h50v-166zM569 594v50h-50v166h195v-50h50v-166h-195zM504 366l-1 2h-184l35 50h-85l122 174h162l34 -50h16l410 -602h-174l-38 50h-12l-132 174h-278l-174 -224h-174l34 50h-84l258 376h265zM704 654v146h-175v-146h175zM419 800h-175
v-146h175v146zM244 356l-244 -356h150l174 224h300l170 -224h150l-396 582h-152l-108 -154h183l53 -72h-280z" />
    <glyph glyph-name="FL00E5h" unicode="&#xe5;" 
d="M623 594h-195v50h-50v166h195v-50h50v-166zM504 366l-1 2h-184l35 50h-85l122 174h162l34 -50h16l410 -602h-174l-38 50h-12l-132 174h-278l-174 -224h-174l34 50h-84l258 376h265zM563 800h-175v-146h175v146zM244 356l-244 -356h150l174 224h300l170 -224h150l-396 582
h-152l-108 -154h183l53 -72h-280z" />
    <glyph glyph-name="FL00E6h" unicode="&#xe6;" horiz-adv-x="1819" 
d="M1679 368v-46h50v-158h-50v-46h50v-178h-890l-38 50h-12l-132 174h-278l-174 -224h-174l34 50h-84l258 376h265l-1 2h-184l35 50h-85l122 174h162l34 -50h16l116 -170h46v15q0 16 3 31h-53v19q0 66 59 110q57 45 140 45h765v-50h50v-174h-50zM1669 428v154h-755
q-79 0 -134 -43q-55 -42 -55 -102v-9h944zM875 158v66h794v138h-944v-40l-177 260h-152l-108 -154h183l53 -72h-280l-244 -356h150l174 224h300l170 -224h875v158h-794z" />
    <glyph glyph-name="FL00E7h" unicode="&#xe7;" 
d="M108 -105h324v45h-193q-83 0 -140 44q-27 21 -40 42q-3 2 -5.5 4t-4.5 4q-59 46 -59 111v292q0 66 59 110q57 45 140 45h765v-50h50v-174h-677q-24 0 -45 -5.5t-36.5 -14.5t-25 -21.5t-10.5 -27.5v-111q0 -6 1 -9q28 -11 65 -11h678v-50h50v-178h-353v-253h-493v50h-50
v158zM118 -253h473v253h353v158h-668q-27 0 -50 6.5t-40 17.5t-26.5 25.5t-9.5 30.5v112q2 33 38 55.5t89 22.5h667v154h-755q-79 0 -134 -43q-55 -42 -55 -102v-292q0 -60 55 -103q55 -42 134 -42h253v-115h-324v-138z" />
    <glyph glyph-name="FL00E8h" unicode="&#xe8;" 
d="M456 600l-22 50h-28l-69 156h197l22 -50h28l69 -156h-197zM954 541l50 1v-174h-50v-46h50v-158h-50v-46h50v-178h-765q-83 0 -140 44q-27 21 -40 42q-3 2 -5.5 4t-4.5 4q-59 46 -59 111v227h50v15q0 16 3 31h-53v19q0 66 59 110q57 45 140 45l566 -1l199 1v-51zM588 660
l-60 136h-176l60 -136h176zM224 428h53h667v154l-189 -1l-566 1q-79 0 -134 -43q-55 -42 -55 -102v-9h224zM670 158h-394h-126v66h794v138h-944v-217q0 -60 55 -103q55 -42 134 -42h566h189v158h-132h-142z" />
    <glyph glyph-name="FL00E9h" unicode="&#xe9;" 
d="M648 600h-197l22 50h-72l69 156h197l-22 -50h72zM954 368v-46h50v-158h-50v-46h50v-178h-765q-83 0 -140 44q-27 21 -40 42q-3 2 -5.5 4t-4.5 4q-59 46 -59 111v227h50v15q0 16 3 31h-53v19q0 66 59 110q57 45 140 45h765v-50h50v-174h-50zM652 796h-176l-60 -136h176z
M944 428v154h-755q-79 0 -134 -43q-55 -42 -55 -102v-9h944zM150 224h794v138h-944v-217q0 -60 55 -103q55 -42 134 -42h755v158h-794v66z" />
    <glyph glyph-name="FL00EAh" unicode="&#xea;" 
d="M569 601l-35 42l-35 -42h-205l51 50h-101l176 172h132l222 -222h-205zM954 368v-46h50v-158h-50v-46h50v-178h-765q-83 0 -140 44q-27 21 -40 42q-3 2 -5.5 4t-4.5 4q-59 46 -59 111v227h50v15q0 16 3 31h-53v19q0 66 59 110q57 45 140 45h765v-50h50v-174h-50zM700 661
l-152 152h-124l-156 -152h176l40 48l40 -48h176zM944 428v154h-755q-79 0 -134 -43q-55 -42 -55 -102v-9h944zM150 158v66h794v138h-944v-217q0 -60 55 -103q55 -42 134 -42h755v158h-668h-126z" />
    <glyph glyph-name="FL00EBh" unicode="&#xeb;" 
d="M507 593h-195v50h-50v166h195v-50h50v-166zM593 593v50h-50v166h195v-50h50v-166h-195zM954 368v-46h50v-158h-50v-46h50v-178h-765q-83 0 -140 44q-27 21 -40 42q-3 2 -5.5 4t-4.5 4q-59 46 -59 111v227h50v15q0 16 3 31h-53v19q0 66 59 110q57 45 140 45h765v-50h50
v-174h-50zM728 653v146h-175v-146h175zM447 799h-175v-146h175v146zM944 428v154h-755q-79 0 -134 -43q-55 -42 -55 -102v-9h944zM150 224h794v138h-944v-217q0 -60 55 -103q55 -42 134 -42h755v158h-794v66z" />
    <glyph glyph-name="FL00ECh" unicode="&#xec;" horiz-adv-x="259" 
d="M24 600l-22 50h-28l-69 156h197l22 -50h28l69 -156h-197zM210 -60h-170v50h-50v384h50v44h-50v174h170v-50h50v-174h-50v-44h50v-384zM156 660l-60 136h-176l60 -136h176zM150 364h-150v-364h150v364zM0 582v-154h150v154h-150z" />
    <glyph glyph-name="FL00EDh" unicode="&#xed;" horiz-adv-x="259" 
d="M216 600h-197l22 50h-72l69 156h197l-22 -50h72zM210 -60h-170v50h-50v384h50v44h-50v174h170v-50h50v-174h-50v-44h50v-384zM220 796h-176l-60 -136h176zM150 364h-150v-364h150v364zM0 582v-154h150v154h-150z" />
    <glyph glyph-name="FL00EEh" unicode="&#xee;" horiz-adv-x="279" 
d="M197 600l-35 42l-35 -42h-205l51 50h-101l176 172h132l222 -222h-205zM242 -60h-170v50h-50v384h54v44h-50v174h170v-50h50v-174h-54v-44h50v-384zM328 660l-152 152h-124l-156 -152h176l40 48l40 -48h176zM182 364h-150v-364h150v364zM36 582v-154h150v154h-150z" />
    <glyph glyph-name="FL00EFh" unicode="&#xef;" horiz-adv-x="279" 
d="M391 594h-195v50h-50v166h195v-50h50v-166zM-80 594v50h-50v166h195v-50h50v-166h-195zM238 -60h-170v50h-50v384h50v42h-50v176h170v-50h50v-176h-50v-42h50v-384zM178 364h-150v-364h150v364zM55 654v146h-175v-146h175zM331 800h-175v-146h175v146zM178 582h-150v-156
h150v156z" />
    <glyph glyph-name="FL00F0h" unicode="&#xf0;" 
d="M4 582h755q79 0 134 -43q55 -42 55 -102v-283q0 -78 -46 -116t-143 -38h-565q-41 0 -75.5 9.5t-60 29t-40 48t-14.5 67.5v66q0 76 46.5 107t143.5 31h604q0 18 -36 42t-90 24h-668v158zM758 220h-598v-66h598v66zM-6 414h50v-50h85q-69 -10 -102 -43.5t-33 -100.5v-66
q0 -47 19 -79.5t51 -52.5q24 -42 71.5 -62t108.5 -20h565q103 0 151 40t48 124v283q0 66 -59 110q-6 4 -10 7q-14 23 -40 43q-57 45 -140 45h-765v-178z" />
    <glyph glyph-name="FL00F1h" unicode="&#xf1;" 
d="M501 600l-39 50l-43 -50h-163l44 50h-94l153 172h122l40 -50h7l39 50h173l-42 -50h92l-144 -172h-145zM785 350q-1 1 -1 4q-30 14 -69 14h-505v-428h-170v50h-50v601h765q83 0 140 -45q26 -20 40 -43q4 -3 10 -7q59 -44 59 -110v-446h-169v50h-50v360zM591 660l128 152
h-147l-47 -60l-49 60h-113l-135 -152h136l48 56l44 -56h135zM150 428h515q54 0 88.5 -23t41.5 -53v-352h149v436q0 60 -55 102q-55 43 -134 43h-755v-581h150v428z" />
    <glyph glyph-name="FL00F2h" unicode="&#xf2;" 
d="M444 600l-22 50h-28l-69 156h197l22 -50h28l69 -156h-197zM544 170l126 -2q49 0 81 22q34 22 34 50v110q-1 1 -1 4q-30 14 -69 14h-388q-24 0 -45 -5.5t-36.5 -14.5t-25 -21.5t-10.5 -27.5v-111q0 -5 1 -8q28 -10 59 -10h274zM-10 437q0 66 59 110q58 44 135 44h571
q83 0 140 -45q26 -20 40 -43q4 -3 10 -7q59 -44 59 -110v-291q0 -65 -59 -111q-58 -44 -140 -44h-566q-83 0 -140 44q-27 21 -40 42q-3 2 -5.5 4t-4.5 4q-59 46 -59 111v292zM576 660l-60 136h-176l60 -136h176zM270 160q-26 0 -48 6t-38 16.5t-25 25t-9 30.5v112
q2 33 38 55.5t89 22.5h388q54 0 88.5 -23t41.5 -53v-112q0 -33 -39 -58q-38 -24 -86 -24l-126 2h-274zM0 145q0 -60 55 -103q55 -42 134 -42h566q78 0 134 42q55 43 55 103v291q0 60 -55 102q-55 43 -134 43h-571q-75 0 -129 -42q-55 -42 -55 -102v-292z" />
    <glyph glyph-name="FL00F3h" unicode="&#xf3;" 
d="M604 600h-197l22 50h-72l69 156h197l-22 -50h72zM670 168q49 0 81 22q34 22 34 50v110q-1 1 -1 4q-30 14 -69 14h-388q-24 0 -45 -5.5t-36.5 -14.5t-25 -21.5t-10.5 -27.5v-111q0 -6 1 -9q28 -11 65 -11h394zM-10 437q0 66 59 110q58 44 140 44h566q83 0 140 -45
q26 -20 40 -43q4 -3 10 -7q59 -44 59 -110v-291q0 -65 -59 -111q-58 -44 -140 -44h-566q-83 0 -140 44q-27 21 -40 42q-3 2 -5.5 4t-4.5 4q-59 46 -59 111v292zM608 796h-176l-60 -136h176zM276 158q-27 0 -50 6.5t-40 17.5t-26.5 25.5t-9.5 30.5v112q2 33 38 55.5t89 22.5
h388q54 0 88.5 -23t41.5 -53v-112q0 -33 -39 -58q-38 -24 -86 -24h-394zM0 145q0 -60 55 -103q55 -42 134 -42h566q78 0 134 42q55 43 55 103v291q0 60 -55 102q-55 43 -134 43h-566q-80 0 -134 -42q-55 -42 -55 -102v-292z" />
    <glyph glyph-name="FL00F4h" unicode="&#xf4;" 
d="M557 600l-35 42l-35 -42h-205l51 50h-101l176 172h132l222 -222h-205zM785 350q-1 1 -1 4q-30 14 -69 14h-388q-24 0 -45 -5.5t-36.5 -14.5t-25 -21.5t-10.5 -27.5v-111q0 -6 1 -9q28 -11 65 -11h389q52 0 86 22t34 50v110zM-10 437q0 66 59 110q58 44 135 44h571
q83 0 140 -45q26 -20 40 -43q4 -3 10 -7q59 -44 59 -110v-291q0 -65 -59 -111q-58 -44 -140 -44h-566q-83 0 -140 44q-27 21 -40 42q-3 2 -5.5 4t-4.5 4q-59 46 -59 111v292zM688 660l-152 152h-124l-156 -152h176l40 48l40 -48h176zM795 240q0 -33 -39 -58q-38 -24 -91 -24
h-389q-27 0 -50 6.5t-40 17.5t-26.5 25.5t-9.5 30.5v112q2 33 38 55.5t89 22.5h388q54 0 88.5 -23t41.5 -53v-112zM0 145q0 -60 55 -103q55 -42 134 -42h566q78 0 134 42q55 43 55 103v291q0 60 -55 102q-55 43 -134 43h-571q-75 0 -129 -42q-55 -42 -55 -102v-292z" />
    <glyph glyph-name="FL00F5h" unicode="&#xf5;" 
d="M501 600l-39 50l-43 -50h-163l44 50h-94l153 172h122l40 -50h7l39 50h173l-42 -50h92l-144 -172h-145zM670 168q49 0 81 22q34 22 34 50v110q-1 1 -1 4q-30 14 -69 14h-388q-24 0 -45 -5.5t-36.5 -14.5t-25 -21.5t-10.5 -27.5v-111q0 -6 1 -9q28 -11 65 -11h394zM-10 437
q0 66 59 110q58 44 135 44h571q83 0 140 -45q26 -20 40 -43q4 -3 10 -7q59 -44 59 -110v-291q0 -65 -59 -111q-58 -44 -140 -44h-566q-83 0 -140 44q-27 21 -40 42q-3 2 -5.5 4t-4.5 4q-59 46 -59 111v292zM591 660l128 152h-147l-47 -60l-49 60h-113l-135 -152h136l48 56
l44 -56h135zM276 158q-27 0 -50 6.5t-40 17.5t-26.5 25.5t-9.5 30.5v112q2 33 38 55.5t89 22.5h388q54 0 88.5 -23t41.5 -53v-112q0 -33 -39 -58q-38 -24 -86 -24h-394zM0 145q0 -60 55 -103q55 -42 134 -42h566q78 0 134 42q55 43 55 103v291q0 60 -55 102q-55 43 -134 43
h-571q-75 0 -129 -42q-55 -42 -55 -102v-292z" />
    <glyph glyph-name="FL00F6h" unicode="&#xf6;" 
d="M479 594h-195v50h-50v166h195v-50h50v-166zM569 594v50h-50v166h195v-50h50v-166h-195zM785 350q-1 1 -1 4q-30 14 -69 14h-388q-24 0 -45 -5.5t-36.5 -14.5t-25 -21.5t-10.5 -27.5v-111q0 -6 1 -9q28 -11 65 -11h389q52 0 86 22t34 50v110zM-10 437q0 66 59 110
q58 44 140 44h566q83 0 140 -45q26 -20 40 -43q4 -3 10 -7q59 -44 59 -110v-291q0 -65 -59 -111q-58 -44 -140 -44h-566q-83 0 -140 44q-27 21 -40 42q-3 2 -5.5 4t-4.5 4q-59 46 -59 111v292zM704 654v146h-175v-146h175zM419 800h-175v-146h175v146zM795 240
q0 -33 -39 -58q-38 -24 -91 -24h-389q-27 0 -50 6.5t-40 17.5t-26.5 25.5t-9.5 30.5v112q2 33 38 55.5t89 22.5h388q54 0 88.5 -23t41.5 -53v-112zM0 145q0 -60 55 -103q55 -42 134 -42h566q78 0 134 42q55 43 55 103v291q0 60 -55 102q-55 43 -134 43h-566q-80 0 -134 -42
q-55 -42 -55 -102v-292z" />
    <glyph glyph-name="FL00F7h" unicode="&#xf7;" horiz-adv-x="589" 
d="M390 -57h-195v50h-50v166h195v-50h50v-166zM535 164h-495v50h-50v158h205v48h-50v166h195v-50h50v-164h95v-50h50v-158zM330 149h-175v-146h175v146zM330 576h-175v-146h175v146zM475 362h-475v-138h475v138z" />
    <glyph glyph-name="FL00F8h" unicode="&#xf8;" 
d="M211 179q28 -11 65 -11h20l120 200h-89q-24 0 -45 -5.5t-36.5 -14.5t-25 -21.5t-10.5 -27.5v-111q0 -6 1 -9zM785 350q-1 1 -1 4q-30 14 -69 14h-20l-120 -200h95q49 0 81 22q34 22 34 50v110zM240 -62l1 2h-2q-83 0 -140 44q-27 21 -40 42q-3 2 -5.5 4t-4.5 4
q-59 46 -59 111v292q0 66 59 110q57 45 140 45h566q80 0 140 -46q26 -20 41 -44l9 -6q59 -44 59 -110v-291q0 -65 -59 -111q-57 -43 -140 -46h-565zM150 350q2 33 38 55.5t89 22.5h187l-162 -270h-26q-27 0 -50 6.5t-40 17.5t-26.5 25.5t-9.5 30.5v112zM795 240
q0 -33 -39 -58q-38 -24 -86 -24h-193l162 270h26q54 0 88.5 -23t41.5 -53v-112zM755 -2q79 3 134 44q55 43 55 103v291q0 60 -55 102q-56 44 -134 44h-566q-79 0 -134 -43q-55 -42 -55 -102v-292q0 -60 55 -103q55 -42 134 -42h18l-1 -2h549z" />
    <glyph glyph-name="FL00F9h" unicode="&#xf9;" 
d="M444 600l-22 50h-28l-69 156h197l22 -50h28l69 -156h-197zM784 592h170v-50h50v-447q0 -65 -59 -111q-58 -44 -140 -44h-566q-83 0 -140 44q-27 21 -40 42q-3 2 -5.5 4t-4.5 4q-59 46 -59 111v447h170v-50h50v-354q0 -6 1 -9q28 -11 65 -11h394q49 0 81 22q34 22 34 50z
M576 660l-60 136h-176l60 -136h176zM795 240q0 -33 -39 -58q-38 -24 -86 -24h-394q-27 0 -50 6.5t-40 17.5t-26.5 25.5t-9.5 30.5v344h-150v-437q0 -60 55 -103q55 -42 134 -42h566q78 0 134 42q55 43 55 103v437h-150z" />
    <glyph glyph-name="V" unicode="&#xfa;" 
d="M604 600h-197l22 50h-72l69 156h197l-22 -50h72zM784 592h170v-50h50v-447q0 -65 -59 -111q-58 -44 -140 -44h-566q-83 0 -140 44q-27 21 -40 42q-3 2 -5.5 4t-4.5 4q-59 46 -59 111v447h170v-50h50v-354q0 -6 1 -9q28 -11 65 -11h394q49 0 81 22q34 22 34 50zM608 796
h-176l-60 -136h176zM795 240q0 -33 -39 -58q-38 -24 -86 -24h-394q-27 0 -50 6.5t-40 17.5t-26.5 25.5t-9.5 30.5v344h-150v-437q0 -60 55 -103q55 -42 134 -42h566q78 0 134 42q55 43 55 103v437h-150z" />
    <glyph glyph-name="FL00FBh" unicode="&#xfb;" 
d="M557 600l-35 42l-35 -42h-205l51 50h-101l176 172h132l222 -222h-205zM784 592h170v-50h50v-447q0 -65 -59 -111q-58 -44 -140 -44h-566q-83 0 -140 44q-27 21 -40 42q-3 2 -5.5 4t-4.5 4q-59 46 -59 111v447h170v-50h50v-354q0 -6 1 -9q28 -11 65 -11h394q49 0 81 22
q34 22 34 50zM688 660l-152 152h-124l-156 -152h176l40 48l40 -48h176zM795 240q0 -33 -39 -58q-38 -24 -86 -24h-394q-27 0 -50 6.5t-40 17.5t-26.5 25.5t-9.5 30.5v344h-150v-437q0 -60 55 -103q55 -42 134 -42h566q78 0 134 42q55 43 55 103v437h-150z" />
    <glyph glyph-name="FL00FCh" unicode="&#xfc;" 
d="M475 594h-195v50h-50v166h195v-50h50v-166zM565 594v50h-50v166h195v-50h50v-166h-195zM784 592h170v-50h50v-447q0 -65 -59 -111q-58 -44 -140 -44h-566q-83 0 -140 44q-27 21 -40 42q-3 2 -5.5 4t-4.5 4q-59 46 -59 111v447h170v-50h50v-354q0 -6 1 -9q28 -11 65 -11
h394q49 0 81 22q34 22 34 50zM700 654v146h-175v-146h175zM415 800h-175v-146h175v146zM795 240q0 -33 -39 -58q-38 -24 -86 -24h-394q-27 0 -50 6.5t-40 17.5t-26.5 25.5t-9.5 30.5v344h-150v-437q0 -60 55 -103q55 -42 134 -42h566q78 0 134 42q55 43 55 103v437h-150z
" />
    <glyph glyph-name="FL00FDh" unicode="&#xfd;" 
d="M604 600h-197l22 50h-72l69 156h197l-22 -50h72zM604 -60h-170v50h-50v174h-144q-75 0 -120.5 17t-65.5 57q-32 17 -48 47t-16 77v230h176v-50h50v-170h562v220h176v-50h50v-230q0 -81 -49 -114.5t-151 -33.5h-250v-44h50v-180zM608 796h-176l-60 -136h176zM544 160h-150
v-160h150v160zM0 582v-220q0 -76 46.5 -107t143.5 -31h564q97 0 143.5 31t46.5 107v220h-156v-220h-632v220h-156z" />
    <glyph glyph-name="FL00FEh" unicode="&#xfe;" 
d="M-10 164h50v46h-50v382h170v-50h50v-174h544q75 0 120.5 -17t65.5 -58q64 -33 64 -123v-66q0 -42 -15 -72.5t-41.5 -51t-63 -30.5t-79.5 -10h-765v50h-50v174zM0 0h755q40 0 75 9.5t60 28.5t39.5 48t14.5 68v66q0 76 -46.5 107t-143.5 31h-604v224h-150v-362h788v-66
h-788v-154z" />
    <glyph glyph-name="FL00FFh" unicode="&#xff;" 
d="M565 594v50h-50v166h195v-50h50v-166h-195zM471 594h-195v50h-50v166h195v-50h50v-166zM604 -60h-170v50h-50v174h-184q-60 0 -109 33q-24 15 -36 41q-4 2 -7.5 4.5t-6.5 4.5q-51 34 -51 115v230h176v-50h50v-170h562v220h176v-50h50v-230q0 -81 -49 -114.5t-151 -33.5
h-250v-44h50v-180zM544 160h-150v-160h150v160zM0 582v-220q0 -75 47 -107q46 -31 103 -31h604q97 0 143.5 31t46.5 107v220h-156v-220h-632v220h-156zM700 654v146h-175v-146h175zM411 800h-175v-146h175v146z" />
  </font>
</defs>
</svg>
