<?xml version="1.0" standalone="no"?>
<!DOCTYPE svg PUBLIC "-//W3C//DTD SVG 20010904//EN"
 "http://www.w3.org/TR/2001/REC-SVG-20010904/DTD/svg10.dtd">
<svg version="1.0" xmlns="http://www.w3.org/2000/svg"
 width="1891.000000pt" height="36.000000pt" viewBox="0 0 1891.000000 36.000000"
 preserveAspectRatio="xMidYMid meet">
<metadata>
Created by potrace 1.15, written by Peter Selinger 2001-2017
</metadata>
<g transform="translate(0.000000,36.000000) scale(0.100000,-0.100000)"
fill="#000000" stroke="none">
<path d="M704 320 l-531 -5 -46 -38 c-58 -48 -61 -59 -5 -18 l42 31 748 0 748
0 0 -37 c0 -21 -3 -55 -6 -75 l-7 -38 -68 0 c-37 0 -70 -4 -74 -10 -3 -5 -12
-7 -20 -3 -8 3 -15 0 -15 -7 0 -9 -4 -9 -17 1 -16 13 -17 12 -4 -4 11 -14 16
-15 29 -5 13 11 14 10 10 -2 -4 -13 -48 -16 -271 -24 -260 -8 -324 -5 -312 14
4 6 10 8 15 5 5 -3 12 0 16 6 4 7 3 9 -3 6 -9 -6 -23 12 -23 29 0 2 160 4 355
4 l356 0 -4 48 -5 47 -356 3 c-226 1 -356 6 -356 12 0 6 -29 10 -65 10 -37 0
-65 -4 -65 -10 0 -6 -54 -10 -141 -10 l-141 0 4 -55 3 -55 -45 -2 c-25 0 -55
0 -67 1 -13 1 -23 -3 -23 -9 0 -6 -4 -9 -10 -5 -5 3 -18 1 -30 -5 -11 -5 -30
-15 -42 -21 -17 -9 -23 -9 -26 0 -2 6 -13 11 -24 11 -27 0 -17 -25 11 -26 20
-1 56 -24 38 -24 -4 0 -3 -9 3 -20 10 -19 6 -20 -137 -23 -82 -1 4109 -3 9312
-3 5203 0 9382 2 9288 3 -95 2 -173 7 -173 11 0 4 6 19 14 34 15 29 5 48 -25
48 -29 0 -49 11 -42 24 5 8 3 8 -8 1 -10 -7 -37 -7 -89 1 -41 6 -69 12 -62 13
9 1 12 15 10 49 l-3 47 -135 3 c-74 1 -139 7 -144 12 -13 13 -136 13 -136 0 0
-6 -125 -10 -355 -10 l-355 0 0 -50 0 -50 353 0 354 0 0 -30 c0 -21 -6 -32
-20 -36 -11 -4 -139 -3 -283 1 -222 6 -265 10 -276 23 -11 13 -11 14 1 7 10
-5 12 -4 7 4 -4 6 -11 9 -16 6 -5 -3 -11 -1 -15 5 -3 5 -37 10 -76 10 l-69 0
0 75 0 75 749 0 748 0 49 -42 49 -42 -35 38 c-76 82 -20 76 -641 76 -619 1
-893 -6 -926 -22 -17 -8 -26 -8 -38 2 -10 8 -15 9 -15 1 0 -6 5 -11 10 -11 11
0 13 -71 4 -119 -4 -19 -13 -31 -23 -31 -13 0 -16 11 -16 53 l0 52 -280 0
-280 0 -6 -35 c-6 -33 -6 -32 -8 13 l-1 47 -60 0 -60 0 -1 -42 c-1 -39 -2 -40
-8 -13 l-6 30 -350 0 -350 0 -3 -47 c-3 -42 -1 -47 20 -51 13 -2 4 -5 -19 -6
l-43 -1 0 75 0 75 735 0 c465 0 735 4 735 10 0 5 -10 14 -21 21 -15 8 -19 8
-15 0 5 -8 -69 -11 -263 -11 -174 0 -271 4 -271 10 0 14 -293 13 -307 -1 -7
-7 -107 -10 -296 -9 -209 0 -292 -3 -306 -12 -15 -9 -25 -9 -46 0 -18 8 -111
12 -310 12 -183 0 -285 4 -285 10 0 13 -297 13 -305 0 -4 -6 -104 -10 -268
-10 -152 0 -268 -4 -277 -10 -10 -6 237 -10 707 -10 397 0 723 -3 725 -8 2 -4
2 -37 0 -74 l-4 -68 -36 1 c-23 1 -29 3 -15 6 21 4 22 8 16 51 -3 26 -6 48 -7
48 -1 1 -191 4 -423 6 l-422 4 -4 -41 c-3 -40 -4 -40 -5 8 l-2 47 -60 0 -60 0
-1 -42 c-1 -39 -2 -40 -8 -13 l-6 30 -205 0 -205 0 -3 -47 -3 -47 38 -4 c29
-3 25 -4 -19 -5 l-56 -2 -7 64 c-4 36 -4 69 0 75 4 7 -4 11 -19 11 -26 0 -26
-1 -26 -75 l0 -75 -27 0 c-16 0 -23 3 -16 8 7 4 9 24 6 52 l-5 45 -278 3 -279
3 -4 -33 c-3 -29 -4 -27 -5 10 l-2 43 -62 -3 c-56 -3 -63 -5 -60 -22 3 -16 1
-18 -10 -8 -17 14 -694 16 -703 3 -2 -5 -6 -29 -7 -55 -2 -35 -7 -46 -20 -46
-13 0 -18 14 -23 64 -4 36 -4 69 0 75 4 8 222 11 728 11 470 0 717 4 707 10
-9 6 -125 10 -277 10 -169 0 -263 4 -263 10 0 14 -293 13 -307 -1 -8 -8 -98
-11 -289 -10 -194 1 -287 -2 -311 -11 -26 -9 -36 -9 -45 0 -9 9 -88 12 -294
12 -178 0 -285 4 -289 10 -8 13 -305 13 -305 0 0 -6 -98 -10 -274 -10 -173 0
-277 -4 -281 -10 -4 -7 237 -10 714 -10 l721 0 0 -75 c0 -68 -2 -75 -20 -75
-18 0 -20 7 -20 55 l0 55 -352 -2 -353 -3 -6 -30 c-6 -27 -7 -26 -8 13 l-1 42
-60 0 -60 0 -2 -47 c-1 -44 -2 -45 -5 -10 l-4 37 -282 -2 -282 -3 0 -53 c0
-41 -3 -52 -16 -52 -18 0 -29 44 -29 113 0 30 -4 37 -20 37 -18 0 -20 -7 -20
-75 0 -68 -2 -75 -20 -75 -18 0 -20 7 -20 55 l0 55 -352 -2 -353 -3 -6 -35
c-6 -33 -6 -32 -8 13 l-1 47 -60 0 -60 0 -2 -47 c-1 -44 -2 -45 -5 -10 l-4 38
-137 -3 -137 -3 -3 -52 -3 -53 -158 0 -159 0 -6 31 c-3 17 -6 51 -6 75 l0 44
721 0 c477 0 718 3 714 10 -4 6 -102 10 -260 10 -158 0 -256 4 -260 10 -8 13
-305 14 -305 0 0 -16 -1248 -26 -1264 -10 -13 13 -299 13 -312 0 -6 -6 -117
-11 -269 -13 -143 -1 65 -3 463 -5 l722 -2 0 -75 0 -75 -217 -1 c-120 -1 -224
-1 -230 0 -11 2 -18 -18 -14 -41 0 -5 -34 -8 -76 -8 -72 1 -76 2 -58 16 20 15
20 15 1 30 -18 12 -3 14 128 14 l149 0 -7 31 c-3 17 -6 40 -6 50 0 18 -10 19
-135 19 l-135 0 0 -27 c0 -14 -3 -23 -7 -19 -4 4 -7 19 -8 34 0 26 -2 27 -62
30 l-63 3 -2 -43 c-1 -36 -2 -38 -5 -11 l-4 32 -352 -2 -352 -2 -3 -48 -3 -47
355 0 c200 0 356 -4 356 -9 0 -14 -40 -20 -66 -11 -16 6 -24 6 -24 -1 0 -6 -9
-8 -20 -4 -26 8 -80 -3 -80 -17 0 -10 143 -4 161 8 5 3 9 -1 9 -8 0 -11 2 -10
9 0 7 11 9 11 14 -2 6 -14 -23 -16 -283 -16 l-290 0 -16 25 c-15 23 -23 25
-84 25 l-67 0 -7 38 c-3 20 -6 54 -6 75 0 30 -4 37 -20 37 -18 0 -20 -7 -20
-75 l0 -75 -69 0 c-49 0 -72 -4 -81 -15 -10 -12 -16 -13 -26 -4 -10 8 -14 8
-14 0 0 -6 5 -11 10 -11 6 0 10 -4 10 -10 0 -6 -81 -10 -222 -10 -218 1 -222
1 -201 19 l22 18 -22 11 c-16 8 55 11 266 11 l288 1 -3 48 -3 47 -277 0 -278
0 0 -29 c0 -40 -14 -24 -14 17 l-1 32 -62 3 -63 3 -2 -43 c-1 -34 -2 -37 -5
-12 l-4 31 -350 1 c-332 1 -349 0 -349 -17 0 -10 -3 -33 -6 -50 l-6 -31 356 0
c350 0 356 0 346 -19 -12 -24 -13 -34 -1 -26 5 3 12 1 16 -5 4 -7 -43 -10
-139 -10 -99 0 -147 4 -152 12 -4 7 -3 8 4 4 7 -4 12 -1 12 7 0 22 -46 27
-265 27 l-202 0 -7 31 c-3 17 -6 51 -6 75 l0 44 723 2 c397 2 597 4 445 5
-174 2 -278 7 -278 13 0 14 -303 13 -316 0 -15 -15 -1203 -15 -1218 0 -13 13
-316 14 -316 0 0 -6 -102 -11 -272 -13 -150 -1 52 -3 450 -5 l723 -2 -3 -72
-3 -73 -209 -3 c-129 -1 -214 -6 -222 -13 -7 -6 -22 -8 -34 -4 -25 8 -27 -10
-2 -24 12 -7 -26 -10 -132 -11 -127 0 -147 2 -137 14 8 10 9 16 1 21 -34 21
16 25 346 25 l355 0 -3 48 -3 47 -350 0 -350 0 -6 -30 c-6 -27 -7 -26 -8 13
l-1 42 -60 0 -60 0 -1 -42 c-1 -39 -2 -40 -8 -13 l-6 30 -280 0 -280 0 -3 -47
-3 -48 285 0 c158 0 286 -4 286 -8 0 -4 -5 -13 -12 -20 -9 -9 -9 -12 0 -12 7
0 12 -4 12 -10 0 -6 -78 -10 -214 -10 l-215 0 -19 25 c-16 21 -29 24 -88 27
l-69 3 -3 73 c-3 64 -5 72 -22 72 -17 0 -20 -8 -21 -55 -1 -30 -3 -59 -4 -65
-1 -5 -3 -14 -4 -20 0 -6 -30 -10 -66 -10 -57 0 -69 -3 -89 -25 l-23 -25 -212
0 -211 0 0 31 0 30 93 -1 c50 -1 179 -1 285 -1 l193 1 -3 48 -3 47 -280 0
-280 0 -6 -30 c-6 -27 -7 -26 -8 13 l-1 42 -60 0 -60 0 -1 -47 c-2 -45 -2 -46
-8 -13 l-6 35 -350 0 -350 0 -3 -47 -3 -48 355 0 c231 0 356 -4 356 -10 0 -11
-13 -14 -44 -10 -11 1 -16 -3 -14 -12 3 -7 17 -12 32 -11 14 1 26 -2 26 -8 0
-5 -61 -9 -143 -9 -143 0 -144 0 -157 25 l-13 25 -216 2 -216 3 -3 73 -3 72
723 2 c398 2 604 4 458 5 -156 2 -268 7 -274 13 -13 13 -299 13 -312 0 -15
-15 -1233 -15 -1248 0 -14 14 -316 14 -316 -1 0 -8 -67 -9 -232 -5 -128 3
-249 7 -268 9 -40 4 -60 -1 -60 -14 0 -5 310 -9 735 -9 l735 0 0 -44 c0 -24
-3 -58 -6 -75 l-6 -31 -213 0 c-116 0 -215 -3 -218 -7 -4 -3 -34 -5 -67 -4
-33 1 -60 -2 -60 -7 0 -12 56 -21 71 -11 15 9 41 0 33 -12 -3 -5 -70 -9 -150
-9 -100 0 -143 3 -139 11 4 5 18 9 30 7 13 -2 23 2 22 7 -2 10 -6 11 -34 14
-7 0 -13 6 -13 11 0 6 125 10 356 10 l357 0 -7 31 c-3 17 -6 40 -6 50 0 17
-19 17 -350 16 l-349 -1 -4 -31 c-3 -23 -4 -20 -5 13 l-2 43 -62 -3 -63 -3 0
-32 c0 -17 -3 -35 -7 -39 -5 -4 -8 7 -8 25 l0 32 -277 -4 -278 -3 -3 -47 -3
-47 285 0 c158 0 286 -4 286 -8 0 -15 -44 -30 -65 -22 -11 4 -74 6 -140 4
-146 -3 -135 -2 -135 -13 0 -4 69 -7 153 -6 83 1 161 -1 172 -6 11 -4 -80 -8
-204 -8 -198 -1 -222 1 -217 15 3 8 2 13 -3 10 -5 -3 -14 1 -21 9 -9 11 -33
15 -81 15 l-69 0 0 75 c0 43 4 75 10 75 6 0 10 5 10 11 0 6 -5 7 -12 2 -20
-12 -295 -3 -378 13 -41 8 -79 13 -85 12 -5 -2 -249 -5 -541 -8z m61 -200 l0
-30 -72 0 c-45 0 -73 4 -73 11 0 5 4 8 9 4 5 -3 12 -1 16 5 6 9 -7 14 -31 11
-6 -1 -17 6 -24 14 -11 13 -1 15 81 15 l94 0 0 -30z m10040 10 c-4 -6 -11 -8
-16 -4 -5 3 -9 2 -8 -3 6 -32 1 -33 -289 -33 l-289 0 0 28 0 27 304 -3 c197
-2 302 -6 298 -12z m2498 3 c-3 -7 -9 -13 -14 -13 -16 0 -9 -18 9 -23 9 -3
-49 -5 -130 -6 -82 0 -148 3 -148 7 0 4 6 14 13 21 7 9 8 12 0 7 -6 -3 -19 -3
-30 1 -26 11 48 18 188 18 89 0 115 -3 112 -12z m631 7 c-40 -9 -54 -18 -54
-36 0 -12 -35 -14 -217 -14 -184 1 -215 3 -200 14 21 16 22 30 2 22 -8 -3 -15
0 -15 7 0 9 62 12 258 12 141 1 243 -2 226 -5z m624 -22 l-2 -28 -141 1 -140
0 -22 28 -21 27 164 0 164 0 -2 -28z m598 7 c-14 -12 -23 -25 -19 -29 3 -3
-95 -5 -218 -5 -123 1 -210 4 -194 6 46 7 55 23 12 23 -23 0 -37 5 -37 13 0
10 52 13 241 13 l240 1 -25 -22z m1254 -7 l0 -28 -141 0 c-138 0 -142 1 -160
24 -11 14 -29 27 -42 29 -12 2 60 4 160 3 l183 -1 0 -27z m605 19 c-11 -6 -24
-12 -30 -12 -5 0 -9 -8 -7 -18 3 -16 -14 -17 -213 -17 l-215 0 0 28 0 27 242
2 c185 1 238 -1 223 -10z m1255 -2 c-7 -8 -16 -12 -21 -9 -5 3 -9 2 -8 -3 5
-29 -3 -33 -78 -33 -74 0 -76 1 -55 16 14 9 36 14 53 12 16 -3 29 -1 29 4 0 4
-22 8 -50 8 -27 0 -50 5 -50 10 0 6 39 10 96 10 84 0 95 -2 84 -15z m-8210
-20 c0 -24 -2 -25 -75 -25 -65 0 -92 9 -67 23 4 2 2 2 -5 1 -6 -2 -17 4 -23
12 -11 12 0 14 79 14 90 0 91 0 91 -25z m1530 18 c-8 -2 -22 -7 -30 -10 -10
-3 -6 -9 15 -18 26 -12 3 -13 -187 -14 -135 -1 -219 3 -223 9 -7 11 2 13 63
10 24 -1 42 3 42 9 0 7 -20 10 -55 7 -30 -2 -55 0 -55 5 0 5 99 9 223 8 122 0
215 -3 207 -6z m458 -7 c-10 -7 -18 -18 -18 -25 0 -8 -43 -11 -146 -11 -129 0
-145 2 -134 15 7 8 20 16 29 16 9 1 3 5 -14 9 -18 4 38 8 135 8 139 1 162 -1
148 -12z m-8788 -31 c0 -18 80 -21 112 -4 24 13 35 5 19 -15 -7 -8 -10 -24 -6
-36 6 -20 3 -20 -160 -20 -161 0 -166 1 -160 20 3 10 1 29 -6 41 -10 20 -10
21 12 14 13 -4 45 -10 71 -12 38 -4 49 -1 54 11 8 21 64 22 64 1z m3104 -1 c5
-12 16 -15 54 -11 26 2 58 8 72 12 22 8 24 7 11 -8 -8 -10 -11 -27 -7 -42 l6
-25 -170 0 c-160 0 -170 1 -161 18 6 11 6 24 -1 36 -13 23 -5 30 20 17 32 -17
112 -14 112 4 0 21 56 20 64 -1z m3090 0 c5 -12 16 -15 54 -11 26 2 58 8 72
12 22 8 24 7 11 -8 -7 -9 -11 -28 -9 -42 l5 -25 -159 0 c-156 0 -159 0 -153
20 4 12 1 28 -6 36 -16 20 -2 31 21 16 29 -18 110 -16 110 3 0 20 46 20 54 -1z
m3102 1 c8 -19 85 -21 114 -3 23 15 37 4 21 -16 -7 -8 -10 -24 -6 -36 6 -20 3
-20 -160 -20 -161 0 -166 1 -160 20 3 10 1 28 -5 40 -8 16 -8 20 4 20 8 0 18
-4 21 -10 10 -17 102 -12 109 5 3 8 17 15 31 15 14 0 28 -7 31 -15z m3100 0
c8 -19 85 -21 114 -3 23 15 37 4 21 -16 -7 -8 -10 -24 -6 -36 6 -20 3 -20
-160 -20 -161 0 -166 1 -160 20 3 10 1 28 -5 40 -8 16 -8 20 4 20 8 0 18 -4
21 -10 10 -17 102 -12 109 5 3 8 17 15 31 15 14 0 28 -7 31 -15z m-12866 -20
c-6 -8 -9 -23 -5 -35 6 -20 6 -20 -485 -20 l-490 0 6 28 c9 37 11 38 32 19 17
-15 62 -17 453 -17 415 0 435 1 459 20 29 23 48 26 30 5z m910 -5 c24 -19 44
-20 461 -20 376 0 438 2 449 15 19 22 27 18 32 -15 l5 -30 -492 0 -491 0 0 35
c0 40 2 41 36 15z m2196 -15 l1 -35 -494 0 -493 0 6 28 c9 37 11 38 32 19 17
-15 62 -17 453 -17 415 0 435 1 459 20 33 26 35 25 36 -15z m904 15 c24 -19
44 -20 459 -20 391 0 436 2 453 17 21 19 23 18 32 -19 l6 -28 -492 0 -493 0 0
35 c0 40 2 41 35 15z m2196 -15 l0 -35 -493 0 c-467 0 -493 1 -485 18 5 9 7
23 5 30 -6 17 22 15 37 -3 11 -13 72 -15 444 -15 412 0 432 1 456 20 34 26 36
25 36 -15z m894 15 c24 -19 44 -20 461 -20 376 0 438 2 449 15 20 24 35 17 36
-15 l1 -30 -491 0 -491 0 0 35 c0 40 2 41 35 15z m2201 2 c-6 -11 -6 -24 0
-35 9 -16 -19 -17 -484 -17 l-494 0 1 30 c1 32 16 39 36 15 11 -13 73 -15 444
-15 413 0 432 1 461 20 37 25 49 25 36 2z m914 -12 c4 -6 164 -10 442 -10 393
0 438 2 455 17 21 19 23 18 32 -19 l6 -28 -488 0 -488 0 0 34 c0 30 2 33 17
25 10 -5 21 -14 24 -19z m2185 9 c-9 -15 -8 -24 1 -35 10 -12 -54 -14 -483
-14 l-495 0 1 30 c1 32 16 39 36 15 11 -13 73 -15 447 -15 420 0 436 1 460 20
33 26 47 26 33 -1z m1366 -19 c361 1 432 3 448 15 24 18 39 19 33 3 -2 -7 0
-21 5 -30 8 -17 -18 -18 -485 -18 l-493 0 0 35 0 34 32 -19 c30 -19 52 -20
460 -20z m-15950 15 c16 -12 86 -14 447 -15 377 0 431 2 452 16 20 13 32 14
23 2 -1 -2 4 -13 11 -26 l12 -22 -502 0 c-453 0 -501 2 -495 16 3 9 6 22 6 30
0 18 21 18 46 -1z m17697 -21 l4 -24 -499 0 -499 0 7 23 c9 31 12 33 34 19 31
-19 878 -17 903 3 24 18 44 10 50 -21z m-17805 -12 c3 -9 -21 -12 -82 -12 -69
0 -84 3 -80 14 7 18 156 16 162 -2z m10538 3 c28 -14 25 -15 -61 -15 -82 0
-88 2 -65 14 34 19 91 19 126 1z m3100 0 c28 -14 25 -15 -61 -15 -82 0 -88 2
-65 14 34 19 91 19 126 1z m4382 -4 c3 -8 -22 -11 -82 -11 -64 0 -84 3 -81 13
7 16 157 15 163 -2z m-16758 -3 c0 -4 -39 -8 -86 -8 -49 0 -83 4 -80 9 8 12
166 11 166 -1z m1250 1 c0 -5 -39 -9 -86 -9 -47 0 -83 4 -80 9 8 12 166 12
166 0z m596 0 c3 -5 -32 -9 -81 -9 -49 0 -84 4 -81 9 8 12 154 12 162 0z
m1254 0 c0 -5 -39 -9 -86 -9 -47 0 -83 4 -80 9 7 11 166 11 166 0z m1256 0 c3
-5 -33 -9 -80 -9 -47 0 -86 4 -86 9 0 11 159 11 166 0z m600 0 c3 -5 -33 -9
-80 -9 -47 0 -86 4 -86 9 0 11 159 11 166 0z m1250 0 c3 -5 -31 -9 -80 -9 -47
0 -86 4 -86 8 0 12 158 13 166 1z m1250 0 c3 -5 -32 -9 -81 -9 -49 0 -84 4
-81 9 8 12 154 12 162 0z m574 1 c17 -5 -5 -8 -65 -8 -59 0 -83 2 -70 8 25 11
102 11 135 0z m2505 0 c13 -6 -11 -8 -70 -8 -60 0 -82 3 -65 8 33 11 110 11
135 0z m600 0 c13 -6 -11 -9 -70 -9 -59 0 -83 3 -70 9 11 5 43 9 70 9 28 0 59
-4 70 -9z m2500 0 c13 -6 -11 -8 -70 -8 -60 0 -82 3 -65 8 33 11 110 11 135 0z
m600 0 c13 -6 -11 -9 -70 -9 -59 0 -83 3 -70 9 11 5 43 9 70 9 28 0 59 -4 70
-9z m1250 0 c13 -6 -11 -8 -70 -8 -60 0 -82 3 -65 8 33 11 110 11 135 0z"/>
<path d="M690 120 c0 -13 30 -13 50 0 11 7 7 10 -17 10 -18 0 -33 -4 -33 -10z"/>
<path d="M13200 120 c0 -5 12 -10 26 -10 14 0 23 4 19 10 -3 6 -15 10 -26 10
-10 0 -19 -4 -19 -10z"/>
<path d="M14518 132 c-16 -2 -28 -8 -28 -13 0 -6 5 -7 10 -4 6 4 17 1 25 -5
12 -10 16 -9 21 4 8 21 6 22 -28 18z"/>
<path d="M14277 118 c16 -8 32 -8 55 0 32 9 31 10 -22 10 -46 1 -52 -1 -33
-10z"/>
<path d="M16362 133 c-39 -5 -33 -23 9 -23 19 0 29 5 29 15 0 8 -1 14 -2 13
-2 0 -18 -3 -36 -5z"/>
<path d="M16664 122 c2 -4 19 -8 38 -9 27 -2 29 0 13 7 -25 11 -58 12 -51 2z"/>
<path d="M11800 118 c0 -5 25 -8 55 -8 30 0 55 3 55 8 0 4 -25 7 -55 7 -30 0
-55 -3 -55 -7z"/>
<path d="M11955 120 c4 -6 11 -7 17 -4 6 4 14 0 19 -7 4 -7 11 -10 14 -7 12
12 -6 28 -31 28 -15 0 -23 -4 -19 -10z"/>
<path d="M116 234 c-18 -10 -25 -19 -19 -25 14 -14 63 7 63 26 0 19 -7 18 -44
-1z"/>
<path d="M18612 236 c1 -10 8 -17 13 -17 15 1 12 24 -3 29 -9 3 -13 -2 -10
-12z"/>
<path d="M18690 235 c0 -19 49 -40 63 -26 6 6 -2 15 -21 25 -38 20 -42 20 -42
1z"/>
<path d="M203 165 c0 -27 2 -38 4 -22 2 15 2 37 0 50 -2 12 -4 0 -4 -28z"/>
<path d="M257 166 c-4 -27 -5 -51 -3 -53 2 -2 19 1 37 6 27 9 28 10 7 7 -26
-3 -27 -1 -30 43 l-3 46 -8 -49z"/>
<path d="M18590 165 c-6 -51 9 -85 37 -85 21 0 15 27 -6 33 -16 4 -20 15 -23
53 l-3 49 -5 -50z"/>
<path d="M18647 173 c-2 -21 0 -42 4 -48 5 -5 9 11 9 38 0 57 -6 61 -13 10z"/>
<path d="M34 176 c-9 -15 -14 -29 -12 -32 3 -2 13 7 22 22 10 14 15 28 13 31
-3 2 -13 -7 -23 -21z"/>
<path d="M5660 132 c0 -6 15 -15 33 -20 37 -10 109 -4 102 9 -3 4 -28 5 -55 2
-33 -4 -55 -2 -65 7 -10 8 -15 9 -15 2z"/>
<path d="M6918 123 c8 -15 19 -18 51 -15 49 5 46 18 -4 20 -20 1 -41 4 -46 8
-8 4 -8 1 -1 -13z"/>
<path d="M7605 130 c-7 -12 18 -24 37 -18 8 3 5 9 -9 16 -14 8 -24 9 -28 2z"/>
<path d="M4304 118 c-6 -10 -6 -10 94 -12 51 -1 81 2 79 8 -4 11 -166 15 -173
4z"/>
<path d="M4972 114 c8 -8 22 -12 31 -8 27 10 20 21 -15 22 -27 1 -29 -1 -16
-14z"/>
<path d="M5083 122 c-29 -2 -53 -6 -53 -10 0 -8 117 -8 125 0 10 9 -18 13 -72
10z"/>
<path d="M5193 118 c-6 -11 -8 -11 90 -13 56 -1 87 2 87 9 0 13 -169 16 -177
4z"/>
<path d="M7413 124 c11 -11 77 -22 77 -13 0 5 -6 10 -12 10 -7 1 -26 3 -42 5
-15 1 -26 1 -23 -2z"/>
<path d="M8080 120 c-18 -11 10 -18 40 -10 l25 6 -27 6 c-15 3 -32 2 -38 -2z"/>
<path d="M8182 118 c-22 -9 -21 -9 71 -14 44 -2 77 0 77 5 0 11 -124 19 -148
9z"/>
<path d="M17410 120 c-11 -7 3 -10 45 -9 43 0 54 3 40 9 -27 12 -67 12 -85 0z"/>
<path d="M100 70 c0 -5 9 -10 19 -10 11 0 23 -4 26 -10 15 -25 65 -5 65 26 0
2 -25 4 -55 4 -30 0 -55 -4 -55 -10z"/>
<path d="M18650 65 c0 -23 42 -37 56 -19 6 8 21 14 33 14 12 0 19 4 16 10 -3
6 -28 10 -56 10 -37 0 -49 -4 -49 -15z"/>
</g>
</svg>
